<svg width="28" height="28" viewBox="0 0 28 28" fill="none" xmlns="http://www.w3.org/2000/svg">
<path fill-rule="evenodd" clip-rule="evenodd" d="M14.0001 11.6L2 6.80002L14.0001 2L26.0001 6.80002L14.0001 11.6Z" stroke="black" stroke-width="3" stroke-linecap="round" stroke-linejoin="round"/>
<path d="M2.55706 19.8078C1.78788 19.5002 0.914925 19.8743 0.607254 20.6435C0.299584 21.4126 0.673708 22.2856 1.44288 22.5933L2.55706 19.8078ZM14 26.0006L13.4429 27.3933C13.8006 27.5363 14.1995 27.5363 14.5571 27.3933L14 26.0006ZM26.5572 22.5933C27.3264 22.2856 27.7005 21.4126 27.3928 20.6435C27.0851 19.8743 26.2122 19.5002 25.443 19.8078L26.5572 22.5933ZM2.55706 12.6073C1.78789 12.2996 0.914933 12.6737 0.607263 13.4429C0.299593 14.2121 0.673717 15.085 1.44289 15.3927L2.55706 12.6073ZM14 18.8L13.443 20.1927C13.8006 20.3358 14.1995 20.3358 14.5571 20.1927L14 18.8ZM26.5572 15.3927C27.3264 15.085 27.7005 14.2121 27.3928 13.4429C27.0851 12.6737 26.2122 12.2996 25.443 12.6073L26.5572 15.3927ZM1.44288 22.5933L13.4429 27.3933L14.5571 24.6079L2.55706 19.8078L1.44288 22.5933ZM14.5571 27.3933L26.5572 22.5933L25.443 19.8078L13.4429 24.6079L14.5571 27.3933ZM1.44289 15.3927L13.443 20.1927L14.5571 17.4073L2.55706 12.6073L1.44289 15.3927ZM14.5571 20.1927L26.5572 15.3927L25.443 12.6073L13.443 17.4073L14.5571 20.1927Z" fill="black"/>
</svg>
