<svg width="1067" height="1041" viewBox="0 0 1067 1041" fill="none" xmlns="http://www.w3.org/2000/svg">
<path d="M1118.44 849.068C1168.59 762.205 1243.62 685.197 1322.48 615.422C1361.91 580.533 1402.31 547.446 1441.04 515.839C1442.95 514.285 1444.85 512.735 1446.74 511.189C1483.41 481.27 1518.46 452.676 1549.64 425.119C1582.43 396.136 1610.92 368.312 1632.5 341.317C1654.09 314.319 1668.74 288.18 1673.9 262.568C1679.05 236.978 1674.73 211.878 1658.29 186.913C1641.85 161.931 1613.26 137.067 1569.86 112.009C1497.44 70.1983 1377.42 39.1125 1235.45 20.546C1093.5 1.98159 929.674 -4.05951 769.676 4.18458C609.675 12.4289 453.528 34.9579 326.941 73.5234C200.323 112.098 103.399 166.681 61.678 238.944C-68.4615 464.352 18.8326 749.977 244.488 880.259C392.485 965.705 568.372 1031.77 728.568 1039.53C888.747 1047.29 1033.18 996.757 1118.44 849.068Z" fill="url(#paint0_linear_126_1341)"/>
<path d="M1118.44 849.068C1168.59 762.205 1243.62 685.197 1322.48 615.422C1361.91 580.533 1402.31 547.446 1441.04 515.839C1442.95 514.285 1444.85 512.735 1446.74 511.189C1483.41 481.27 1518.46 452.676 1549.64 425.119C1582.43 396.136 1610.92 368.312 1632.5 341.317C1654.09 314.319 1668.74 288.18 1673.9 262.568C1679.05 236.978 1674.73 211.878 1658.29 186.913C1641.85 161.931 1613.26 137.067 1569.86 112.009C1497.44 70.1983 1377.42 39.1125 1235.45 20.546C1093.5 1.98159 929.674 -4.05951 769.676 4.18458C609.675 12.4289 453.528 34.9579 326.941 73.5234C200.323 112.098 103.399 166.681 61.678 238.944C-68.4615 464.352 18.8326 749.977 244.488 880.259C392.485 965.705 568.372 1031.77 728.568 1039.53C888.747 1047.29 1033.18 996.757 1118.44 849.068Z" stroke="black"/>
<path d="M1118.44 849.068C1168.59 762.205 1243.62 685.197 1322.48 615.422C1361.91 580.533 1402.31 547.446 1441.04 515.839C1442.95 514.285 1444.85 512.735 1446.74 511.189C1483.41 481.27 1518.46 452.676 1549.64 425.119C1582.43 396.136 1610.92 368.312 1632.5 341.317C1654.09 314.319 1668.74 288.18 1673.9 262.568C1679.05 236.978 1674.73 211.878 1658.29 186.913C1641.85 161.931 1613.26 137.067 1569.86 112.009C1497.44 70.1983 1377.42 39.1125 1235.45 20.546C1093.5 1.98159 929.674 -4.05951 769.676 4.18458C609.675 12.4289 453.528 34.9579 326.941 73.5234C200.323 112.098 103.399 166.681 61.678 238.944C-68.4615 464.352 18.8326 749.977 244.488 880.259C392.485 965.705 568.372 1031.77 728.568 1039.53C888.747 1047.29 1033.18 996.757 1118.44 849.068Z" stroke="black" stroke-opacity="0.2"/>
<defs>
<linearGradient id="paint0_linear_126_1341" x1="357.817" y1="946.267" x2="945.216" y2="-71.1376" gradientUnits="userSpaceOnUse">
<stop stop-color="#01AC6A"/>
<stop offset="1" stop-color="#35CF72"/>
</linearGradient>
</defs>
</svg>
