<svg width="24" height="24" viewBox="0 0 24 24" fill="none" xmlns="http://www.w3.org/2000/svg">
<g clip-path="url(#clip0_124_1104)">
<path d="M5.12603 0.382606L15.9419 6.57952L11.1584 11.2927L1.25803 1.54471C1.44566 1.15558 1.724 0.814383 2.07237 0.55137C2.54777 0.192452 3.12749 -0.00117508 3.72316 5.36551e-06C4.21638 0.00133073 4.70043 0.133346 5.12603 0.382606Z" fill="#1D1F22"/>
<path d="M0.999969 2.694V21.3018L10.446 11.9947L0.999969 2.694Z" fill="#1D1F22"/>
<path d="M11.1586 12.6964L1.25698 22.4524C1.36815 22.6836 1.51169 22.8988 1.68392 23.0911C1.96166 23.4012 2.30664 23.6437 2.69247 23.8001C3.0783 23.9564 3.49478 24.0225 3.91006 23.9932C4.32534 23.964 4.72843 23.8401 5.08852 23.6312L15.9701 17.4338L11.1586 12.6964Z" fill="#1D1F22"/>
<path d="M16.8795 16.9259L21.3229 14.3888C21.7535 14.1633 22.1143 13.8242 22.366 13.4083C22.6177 12.9924 22.7507 12.5156 22.7507 12.0294C22.7507 11.5433 22.6177 11.0664 22.366 10.6505C22.1143 10.2346 21.7535 9.89554 21.3229 9.67005H21.3379L16.8429 7.09564L11.871 11.9944L16.8795 16.9259Z" fill="#1D1F22"/>
</g>
<defs>
<clipPath id="clip0_124_1104">
<rect width="24" height="24" fill="white"/>
</clipPath>
</defs>
</svg>
