<svg width="28" height="28" viewBox="0 0 28 28" fill="none" xmlns="http://www.w3.org/2000/svg">
<path d="M27.8333 9.19039C27.8333 8.36196 27.1618 7.69039 26.3333 7.69039C25.5049 7.69039 24.8333 8.36196 24.8333 9.19039H27.8333ZM12.619 24.833C11.7906 24.833 11.119 25.5046 11.119 26.333C11.119 27.1614 11.7906 27.833 12.619 27.833V24.833ZM24.8333 9.19006C24.8333 10.0185 25.5049 10.6901 26.3333 10.6901C27.1618 10.6901 27.8333 10.0185 27.8333 9.19006H24.8333ZM12.619 0.83301C11.7906 0.83301 11.119 1.50458 11.119 2.33301C11.119 3.16144 11.7906 3.83301 12.619 3.83301V0.83301ZM26.3333 10.6907C27.1618 10.6907 27.8333 10.0192 27.8333 9.19072C27.8333 8.3623 27.1618 7.69072 26.3333 7.69072V10.6907ZM12.619 7.69072C11.7906 7.69072 11.119 8.3623 11.119 9.19072C11.119 10.0192 11.7906 10.6907 12.619 10.6907V7.69072ZM3.83334 14.3332C3.83334 13.5047 3.16177 12.8332 2.33334 12.8332C1.50492 12.8332 0.833344 13.5047 0.833344 14.3332H3.83334ZM12.6191 27.833C13.4475 27.833 14.1191 27.1614 14.1191 26.333C14.1191 25.5046 13.4475 24.833 12.6191 24.833V27.833ZM0.833344 14.3328C0.833344 15.1613 1.50492 15.8328 2.33334 15.8328C3.16177 15.8328 3.83334 15.1613 3.83334 14.3328H0.833344ZM12.6191 3.83301C13.4475 3.83301 14.1191 3.16144 14.1191 2.33301C14.1191 1.50458 13.4475 0.833009 12.6191 0.833009V3.83301ZM2.33334 12.8335C1.50492 12.8335 0.833344 13.5051 0.833344 14.3335C0.833344 15.1619 1.50492 15.8335 2.33334 15.8335L2.33334 12.8335ZM12.6191 15.8335C13.4475 15.8335 14.1191 15.1619 14.1191 14.3335C14.1191 13.5051 13.4475 12.8335 12.6191 12.8335V15.8335ZM14.119 14.3332C14.119 13.5047 13.4475 12.8332 12.619 12.8332C11.7906 12.8332 11.119 13.5047 11.119 14.3332H14.119ZM11.119 26.333C11.119 27.1614 11.7906 27.833 12.619 27.833C13.4475 27.833 14.119 27.1614 14.119 26.333H11.119ZM11.119 14.3328C11.119 15.1613 11.7906 15.8328 12.619 15.8328C13.4475 15.8328 14.119 15.1613 14.119 14.3328H11.119ZM14.119 9.19006C14.119 8.36163 13.4475 7.69006 12.619 7.69006C11.7906 7.69006 11.119 8.36163 11.119 9.19006H14.119ZM14.119 2.33301C14.119 1.50458 13.4475 0.83301 12.619 0.83301C11.7906 0.83301 11.119 1.50458 11.119 2.33301H14.119ZM11.119 9.19006C11.119 10.0185 11.7906 10.6901 12.619 10.6901C13.4475 10.6901 14.119 10.0185 14.119 9.19006H11.119ZM24.8333 9.19039V19.476H27.8333V9.19039H24.8333ZM24.8333 19.476C24.8333 22.4346 22.4349 24.833 19.4762 24.833V27.833C24.0917 27.833 27.8333 24.0915 27.8333 19.476H24.8333ZM19.4762 24.833H12.619V27.833H19.4762V24.833ZM27.8333 9.19006C27.8333 4.57457 24.0917 0.83301 19.4762 0.83301V3.83301C22.4349 3.83301 24.8333 6.23146 24.8333 9.19006H27.8333ZM19.4762 0.83301H12.619V3.83301H19.4762V0.83301ZM26.3333 7.69072H12.619V10.6907L26.3333 10.6907V7.69072ZM0.833344 14.3332L0.833344 19.476H3.83334L3.83334 14.3332H0.833344ZM0.833344 19.476C0.833344 24.0915 4.57498 27.833 9.19049 27.833V24.833C6.2318 24.833 3.83334 22.4346 3.83334 19.476H0.833344ZM9.19049 27.833H12.6191V24.833H9.19049V27.833ZM3.83334 14.3328V9.19006H0.833344L0.833344 14.3328H3.83334ZM3.83334 9.19006C3.83334 6.23146 6.2318 3.83301 9.19049 3.83301V0.833009C4.57498 0.833009 0.833344 4.57457 0.833344 9.19006H3.83334ZM9.19049 3.83301H12.6191V0.833009H9.19049V3.83301ZM2.33334 15.8335H12.6191V12.8335H2.33334L2.33334 15.8335ZM11.119 14.3332V26.333H14.119V14.3332H11.119ZM14.119 14.3328L14.119 9.19006H11.119L11.119 14.3328H14.119ZM11.119 2.33301V9.19006H14.119V2.33301H11.119Z" fill="black"/>
</svg>
