<svg width="70" height="70" viewBox="0 0 70 70" fill="none" xmlns="http://www.w3.org/2000/svg">
<path d="M0 4.15625C0 1.94711 1.79086 0.15625 4 0.15625H65.2683C67.4774 0.15625 69.2683 1.94711 69.2683 4.15625V65.4245C69.2683 67.6337 67.4774 69.4245 65.2683 69.4245H4C1.79086 69.4245 0 67.6337 0 65.4245V4.15625Z" fill="#EE645B" fill-opacity="0.3"/>
<path d="M47.25 41C47.25 41.4688 47.0156 41.8789 46.7227 42.1133C46.4297 42.9922 46.4297 45.5703 46.7227 46.5078C47.0156 46.7422 47.25 47.1523 47.25 47.5625V48.5C47.25 49.3203 46.6055 49.9062 45.8438 49.9062H26.625C23.5195 49.9062 21 47.3867 21 44.2812V25.5312C21 22.4258 23.5195 19.9062 26.625 19.9062H45.8438C46.6055 19.9062 47.25 20.5508 47.25 21.3125V41ZM28.5 27.7578V28.9297C28.5 29.1641 28.6172 29.2812 28.8516 29.2812H41.2734C41.4492 29.2812 41.625 29.1641 41.625 28.9297V27.7578C41.625 27.582 41.4492 27.4062 41.2734 27.4062H28.8516C28.6172 27.4062 28.5 27.582 28.5 27.7578ZM28.5 31.5078V32.6797C28.5 32.9141 28.6172 33.0312 28.8516 33.0312H41.2734C41.4492 33.0312 41.625 32.9141 41.625 32.6797V31.5078C41.625 31.332 41.4492 31.1562 41.2734 31.1562H28.8516C28.6172 31.1562 28.5 31.332 28.5 31.5078ZM43.3242 46.1562C43.207 45.1602 43.207 43.4609 43.3242 42.4062H26.625C25.5703 42.4062 24.75 43.2852 24.75 44.2812C24.75 45.3359 25.5703 46.1562 26.625 46.1562H43.3242Z" fill="#EE645B"/>
</svg>
