<svg width="24" height="25" viewBox="0 0 24 25" fill="none" xmlns="http://www.w3.org/2000/svg">
<g clip-path="url(#clip0_124_1105)">
<path d="M21.792 19.3918C21.429 20.2303 20.9994 21.0021 20.5016 21.7117C19.8231 22.6791 19.2676 23.3487 18.8395 23.7205C18.1758 24.3309 17.4647 24.6435 16.7032 24.6612C16.1566 24.6612 15.4973 24.5057 14.73 24.1901C13.9601 23.8761 13.2525 23.7205 12.6056 23.7205C11.9271 23.7205 11.1994 23.8761 10.4211 24.1901C9.64153 24.5057 9.01355 24.6701 8.53342 24.6864C7.80322 24.7175 7.07539 24.3961 6.3489 23.7205C5.88521 23.3161 5.30523 22.6228 4.61043 21.6406C3.86498 20.5917 3.25211 19.3755 2.77198 17.9888C2.25777 16.4911 2 15.0408 2 13.6367C2 12.0283 2.34754 10.6411 3.04367 9.47859C3.59076 8.54484 4.31859 7.80827 5.22953 7.26754C6.14046 6.72682 7.12473 6.45127 8.18469 6.43364C8.76467 6.43364 9.52524 6.61304 10.4704 6.96562C11.4129 7.31939 12.0181 7.49879 12.2834 7.49879C12.4817 7.49879 13.154 7.28902 14.2937 6.87081C15.3714 6.48297 16.281 6.32238 17.0262 6.38564C19.0454 6.5486 20.5624 7.34458 21.5712 8.77861C19.7654 9.8728 18.8721 11.4053 18.8898 13.3714C18.9061 14.9027 19.4617 16.177 20.5535 17.1889C21.0483 17.6585 21.6009 18.0214 22.2156 18.2792C22.0823 18.6659 21.9416 19.0362 21.792 19.3918ZM17.161 1.16861C17.161 2.36889 16.7225 3.48958 15.8484 4.52688C14.7937 5.76003 13.5179 6.4726 12.1343 6.36016C12.1167 6.21617 12.1065 6.06461 12.1065 5.90536C12.1065 4.7531 12.6081 3.51995 13.4989 2.51168C13.9436 2.00118 14.5092 1.5767 15.1951 1.23809C15.8796 0.904532 16.5269 0.720066 17.1358 0.688477C17.1536 0.848934 17.161 1.0094 17.161 1.1686V1.16861Z" fill="#1D1F22"/>
</g>
<defs>
<clipPath id="clip0_124_1105">
<rect width="24" height="24" fill="white" transform="translate(0 0.688477)"/>
</clipPath>
</defs>
</svg>
