<svg width="1920" height="2611" viewBox="0 0 1920 2611" fill="none" xmlns="http://www.w3.org/2000/svg">
<path fill-rule="evenodd" clip-rule="evenodd" d="M259.231 998.592C66.1739 891.634 -195.029 787.649 -227.099 569.286C-260.313 343.13 16.5811 196.857 110.905 -11.3556C184.522 -173.859 129.15 -395.431 263.241 -513.102C397.26 -630.71 617.319 -526.383 780.274 -598.758C1028.96 -709.21 1193.07 -1134.8 1447.86 -1039.24C1696.67 -945.913 1505.74 -514.419 1630.59 -279.831C1734.61 -84.3828 2111.69 -44.4804 2094.77 176.278C2077.11 406.728 1705.73 417.341 1563.21 599.295C1446.49 748.31 1512.51 1006.79 1358.28 1116.53C1204.29 1226.12 991.17 1160.28 803.24 1140.11C613.087 1119.71 426.519 1091.27 259.231 998.592Z" stroke="#35CF72" stroke-opacity="0.2" stroke-width="3"/>
<path opacity="0.95875" fill-rule="evenodd" clip-rule="evenodd" d="M281.977 975.34C92.7696 861.71 -164.645 748.673 -189.075 529.323C-214.376 302.146 67.4544 165.626 168.987 -39.1682C248.231 -199.003 200.625 -422.373 338.741 -535.292C476.783 -648.151 693.067 -536.208 858.449 -602.852C1110.84 -704.558 1289.71 -1124.16 1541 -1019.76C1786.41 -917.814 1580.53 -493.246 1697.12 -254.444C1794.26 -55.4842 2169.71 -2.44638 2145.09 217.587C2119.4 447.28 1747.88 444.926 1599.1 621.795C1477.25 766.645 1534.2 1027.27 1376.24 1131.57C1218.52 1235.72 1007.83 1162.47 820.715 1135.76C631.39 1108.73 445.928 1073.8 281.977 975.34Z" stroke="#35CF72" stroke-opacity="0.2" stroke-width="3"/>
<path opacity="0.9175" fill-rule="evenodd" clip-rule="evenodd" d="M305.516 952.894C120.39 832.73 -132.923 710.777 -149.683 490.709C-167.041 262.787 119.383 136.186 228.001 -64.94C312.774 -221.912 272.994 -446.807 414.966 -554.838C556.862 -662.81 769.108 -543.387 936.715 -604.219C1192.5 -697.054 1385.9 -1110.16 1633.4 -997.056C1875.1 -886.603 1654.53 -469.479 1762.72 -226.754C1852.85 -24.5251 2226.22 41.5836 2193.94 260.624C2160.25 489.281 1789.04 473.962 1634.17 645.531C1507.34 786.04 1555.16 1048.49 1393.66 1147.22C1232.4 1245.79 1024.39 1165.25 838.327 1132.02C650.061 1098.4 465.931 1057.02 305.516 952.894Z" stroke="#35CF72" stroke-opacity="0.2" stroke-width="3"/>
<path opacity="0.87625" fill-rule="evenodd" clip-rule="evenodd" d="M329.824 931.282C149.004 804.731 -99.8983 674.012 -108.967 453.493C-118.36 225.104 172.307 108.576 287.878 -88.6367C378.078 -242.555 346.17 -468.701 491.827 -571.711C637.405 -674.666 845.353 -547.908 1014.98 -602.853C1273.85 -686.705 1481.55 -1092.81 1724.95 -971.137C1962.65 -852.317 1727.66 -443.144 1827.31 -196.791C1910.33 8.4601 2281.17 87.559 2241.26 305.339C2199.61 532.681 1829.16 504.416 1668.4 670.476C1536.74 806.474 1575.38 1070.43 1410.53 1163.46C1245.92 1256.35 1040.85 1168.59 856.06 1128.89C669.081 1088.72 486.507 1040.94 329.824 931.282Z" stroke="#35CF72" stroke-opacity="0.2" stroke-width="3"/>
<path opacity="0.835" fill-rule="evenodd" clip-rule="evenodd" d="M354.871 910.532C178.578 777.748 -65.6103 638.422 -66.9779 417.721C-68.3943 189.143 226.163 82.8303 348.546 -110.229C444.063 -260.905 420.067 -488.027 569.229 -585.891C718.312 -683.703 921.709 -549.765 1093.15 -598.757C1354.79 -673.523 1576.54 -1072.13 1815.54 -942.039C2048.95 -814.995 1799.82 -414.273 1890.81 -164.592C1966.62 43.4313 2334.47 135.424 2286.99 351.679C2237.43 577.428 1868.19 536.252 1701.73 696.6C1565.41 827.921 1594.81 1093.07 1426.81 1180.29C1259.06 1267.38 1057.18 1172.51 873.89 1126.39C688.427 1079.72 507.632 1025.59 354.871 910.532Z" stroke="#35CF72" stroke-opacity="0.2" stroke-width="3"/>
<path opacity="0.79375" fill-rule="evenodd" clip-rule="evenodd" d="M380.628 890.669C209.076 751.813 -30.1012 604.05 -23.7656 383.436C-17.2039 154.948 280.884 58.9795 409.931 -129.691C510.647 -276.942 494.593 -504.763 647.08 -597.362C799.485 -689.911 998.084 -548.956 1171.13 -591.935C1435.22 -657.524 1670.74 -1048.15 1905.06 -909.796C2133.89 -774.685 1870.93 -382.901 1953.15 -130.197C2021.65 80.3455 2386.07 185.12 2331.07 399.586C2273.66 623.468 1906.09 569.431 1734.13 723.872C1593.31 850.355 1613.44 1116.37 1442.5 1197.67C1271.82 1278.85 1073.37 1177 891.797 1124.51C708.076 1071.39 529.28 1010.99 380.628 890.669Z" stroke="#35CF72" stroke-opacity="0.2" stroke-width="3"/>
<path opacity="0.7525" fill-rule="evenodd" clip-rule="evenodd" d="M407.062 871.717C240.461 726.958 6.58581 570.938 20.6169 350.679C35.1487 122.56 336.404 37.053 471.957 -146.999C577.751 -290.645 569.657 -518.888 725.283 -606.109C880.825 -693.282 1074.38 -545.482 1248.83 -582.395C1515.04 -638.729 1764.05 -1020.89 1993.4 -874.45C2217.38 -731.434 1940.91 -349.066 2014.26 -93.6468C2075.37 119.158 2435.91 236.587 2373.46 449.003C2308.27 670.745 1942.8 603.913 1765.56 752.259C1620.41 873.75 1631.24 1140.3 1457.58 1215.59C1284.16 1290.76 1089.39 1182.05 909.759 1123.25C728.003 1063.76 551.424 997.153 407.062 871.717Z" stroke="#35CF72" stroke-opacity="0.2" stroke-width="3"/>
<path opacity="0.71125" fill-rule="evenodd" clip-rule="evenodd" d="M434.141 853.699C272.694 703.214 44.4061 539.127 66.1156 319.492C88.5998 92.0187 392.656 17.0776 534.549 -162.131C645.292 -301.998 645.169 -530.384 803.744 -612.12C962.233 -693.813 1150.52 -539.348 1326.14 -570.15C1594.16 -617.158 1856.36 -990.4 2080.45 -836.042C2299.3 -685.296 2009.66 -312.81 2074.05 -54.9864C2127.69 159.821 2483.92 289.761 2414.09 499.868C2341.2 719.201 1978.29 639.654 1795.99 781.725C1646.68 898.076 1648.2 1164.84 1472.01 1234.02C1296.08 1303.1 1105.22 1187.66 927.754 1122.62C748.185 1056.82 574.038 984.097 434.141 853.699Z" stroke="#35CF72" stroke-opacity="0.2" stroke-width="3"/>
<path opacity="0.67" fill-rule="evenodd" clip-rule="evenodd" d="M461.833 836.637C305.736 680.61 83.3136 508.655 112.675 289.912C143.084 63.3617 449.57 -0.922397 597.632 -175.07C713.189 -310.987 721.036 -539.238 882.366 -615.39C1043.61 -691.502 1226.39 -530.56 1402.98 -555.214C1672.48 -592.84 1947.54 -956.704 2166.11 -794.619C2379.57 -636.328 2077.1 -274.177 2132.45 -14.2628C2178.57 202.286 2530.04 344.579 2452.93 552.121C2372.43 768.776 2012.51 676.613 1825.36 812.234C1672.09 923.304 1664.3 1189.96 1485.8 1252.95C1307.56 1315.85 1120.85 1193.81 945.759 1122.62C768.597 1050.6 597.094 971.838 461.833 836.637Z" stroke="#35CF72" stroke-opacity="0.2" stroke-width="3"/>
<path opacity="0.62875" fill-rule="evenodd" clip-rule="evenodd" d="M490.103 820.552C339.546 659.172 123.261 479.56 160.238 261.974C198.536 36.6234 507.079 -16.9253 661.127 -185.8C781.357 -317.601 797.165 -545.439 961.056 -615.915C1124.86 -686.352 1301.91 -519.13 1479.25 -537.606C1749.9 -565.804 2037.49 -919.846 2250.28 -750.232C2458.08 -584.587 2143.15 -233.213 2189.4 28.4742C2227.93 246.501 2574.22 400.973 2489.91 605.698C2401.9 819.411 2045.42 714.743 1853.65 843.75C1696.59 949.403 1679.5 1215.63 1498.92 1272.35C1318.59 1328.99 1136.25 1200.51 963.754 1123.25C789.213 1045.09 620.563 960.391 490.103 820.552Z" stroke="#35CF72" stroke-opacity="0.2" stroke-width="3"/>
<path opacity="0.5875" fill-rule="evenodd" clip-rule="evenodd" d="M518.917 805.463C374.084 638.927 164.199 451.876 208.748 235.713C254.886 11.8365 565.11 -30.9115 724.959 -194.307C849.715 -321.832 873.465 -548.98 1039.71 -613.692C1205.88 -678.37 1376.98 -505.071 1554.86 -517.347C1826.33 -536.082 2126.1 -879.872 2332.84 -702.934C2534.73 -530.139 2207.74 -189.97 2244.82 73.1725C2275.72 292.411 2616.41 458.875 2525.01 660.532C2429.59 871.044 2076.98 753.999 1880.82 876.234C1720.18 976.342 1693.81 1241.81 1511.35 1292.19C1329.16 1342.5 1151.41 1207.74 981.715 1124.51C810.009 1040.3 644.418 949.77 518.917 805.463Z" stroke="#35CF72" stroke-opacity="0.2" stroke-width="3"/>
<path opacity="0.54625" fill-rule="evenodd" clip-rule="evenodd" d="M548.241 791.389C409.308 619.9 206.079 425.638 258.144 211.162C312.068 -10.9685 623.594 -42.8639 789.048 -200.581C918.179 -323.674 949.842 -549.855 1118.25 -608.726C1286.57 -667.566 1451.52 -488.4 1629.72 -494.461C1901.68 -503.71 2213.27 -836.829 2413.7 -652.785C2609.44 -473.048 2270.77 -144.498 2298.65 119.778C2321.88 339.962 2656.55 518.213 2558.17 716.558C2455.46 923.611 2107.15 794.332 1906.85 909.647C1742.81 1004.09 1707.19 1268.47 1523.08 1312.46C1339.25 1356.38 1166.31 1215.49 999.622 1126.39C830.959 1036.24 668.628 939.988 548.241 791.389Z" stroke="#35CF72" stroke-opacity="0.2" stroke-width="3"/>
<path opacity="0.505" fill-rule="evenodd" clip-rule="evenodd" d="M578.037 778.347C445.174 602.114 248.848 400.878 308.367 188.349C370.01 -31.764 682.46 -52.7678 853.317 -204.615C986.666 -323.126 1026.2 -548.064 1196.56 -601.022C1366.83 -653.952 1525.43 -469.139 1703.73 -468.977C1975.85 -468.729 2298.87 -790.771 2492.76 -599.843C2682.11 -413.385 2332.18 -96.8546 2350.82 168.234C2366.35 389.094 2694.6 578.917 2589.35 773.707C2479.48 977.05 2135.9 835.693 1931.69 943.948C1764.45 1032.61 1719.63 1295.59 1534.1 1333.12C1348.84 1370.6 1180.93 1223.76 1017.45 1128.9C852.039 1032.92 693.166 931.057 578.037 778.347Z" stroke="#35CF72" stroke-opacity="0.2" stroke-width="3"/>
<path opacity="0.46375" fill-rule="evenodd" clip-rule="evenodd" d="M608.271 766.353C481.639 585.59 292.456 377.625 359.356 167.303C428.643 -50.5247 741.636 -60.6114 917.688 -206.403C1055.09 -320.189 1102.45 -543.61 1274.56 -590.59C1446.57 -637.545 1598.62 -447.309 1776.81 -440.925C2048.75 -431.181 2382.82 -741.753 2569.92 -544.175C2752.65 -351.223 2391.89 -47.0969 2401.27 218.48C2409.08 439.748 2730.5 640.911 2618.52 831.909C2501.62 1031.29 2163.18 878.033 1955.32 979.095C1785.09 1061.86 1731.11 1323.12 1544.39 1354.15C1357.94 1385.14 1195.25 1232.54 1035.18 1132.03C873.221 1030.33 718 922.988 608.271 766.353Z" stroke="#35CF72" stroke-opacity="0.2" stroke-width="3"/>
<path opacity="0.4225" fill-rule="evenodd" clip-rule="evenodd" d="M638.905 755.422C518.659 570.349 336.849 355.908 411.048 148.049C487.895 -67.2277 801.049 -66.3849 982.082 -205.944C1123.37 -314.865 1178.5 -536.497 1352.14 -577.442C1525.69 -618.365 1671.01 -422.939 1848.87 -410.339C2120.3 -391.111 2465 -689.835 2645.1 -485.848C2820.98 -286.636 2449.83 4.71432 2449.93 270.457C2450.02 491.863 2764.22 704.12 2645.64 891.094C2521.86 1086.28 2188.97 921.299 1977.71 1015.04C1804.69 1091.82 1741.63 1351.03 1553.94 1375.53C1366.52 1400 1209.26 1241.81 1052.8 1135.77C894.481 1028.48 743.1 915.79 638.905 755.422Z" stroke="#35CF72" stroke-opacity="0.2" stroke-width="3"/>
<path opacity="0.38125" fill-rule="evenodd" clip-rule="evenodd" d="M669.902 745.566C556.188 556.409 381.972 335.754 463.38 130.611C547.694 -81.8527 860.628 -70.0816 1046.42 -203.237C1191.43 -307.161 1254.26 -526.734 1429.22 -561.594C1604.09 -596.436 1742.5 -396.057 1919.81 -377.258C2190.41 -348.568 2545.33 -635.08 2718.19 -424.932C2887.02 -219.704 2505.92 58.5159 2496.75 324.1C2489.11 545.374 2795.71 768.468 2670.68 951.19C2540.16 1141.93 2213.23 965.438 1998.83 1051.75C1823.24 1122.44 1751.17 1379.3 1562.74 1397.23C1374.58 1415.14 1222.94 1251.56 1070.27 1140.13C915.792 1027.38 768.437 909.473 669.902 745.566Z" stroke="#35CF72" stroke-opacity="0.2" stroke-width="3"/>
<path opacity="0.34" fill-rule="evenodd" clip-rule="evenodd" d="M701.224 736.798C594.18 543.788 427.772 317.187 516.29 115.01C607.967 -94.3818 920.299 -71.6966 1110.63 -198.287C1259.17 -297.087 1329.63 -514.333 1505.7 -543.066C1681.68 -571.784 1813.01 -366.697 1989.56 -341.721C2258.99 -303.605 2623.69 -577.556 2789.12 -361.503C2950.67 -150.508 2560.1 114.242 2541.67 379.345C2526.31 600.217 2824.94 833.876 2693.61 1012.12C2556.51 1198.2 2235.94 1010.4 2018.66 1089.18C1840.71 1153.7 1759.72 1407.88 1570.77 1419.23C1382.1 1430.56 1236.26 1261.79 1087.57 1145.09C937.129 1027.02 793.978 904.044 701.224 736.798Z" stroke="#35CF72" stroke-opacity="0.2" stroke-width="3"/>
<path opacity="0.29875" fill-rule="evenodd" clip-rule="evenodd" d="M732.832 729.128C632.59 532.5 474.191 300.23 569.711 101.265C668.64 -104.8 979.99 -71.2282 1174.62 -191.099C1326.52 -284.655 1404.52 -499.31 1581.48 -521.881C1758.36 -544.439 1882.46 -334.893 2058.02 -303.771C2325.96 -256.276 2700 -517.332 2857.79 -295.637C3011.88 -79.132 2612.3 171.826 2584.63 436.124C2561.57 656.325 2851.87 900.264 2714.39 1073.82C2570.88 1254.99 2257.07 1056.12 2037.16 1127.27C1857.07 1185.54 1767.26 1436.74 1578.03 1441.49C1389.08 1446.23 1249.22 1272.47 1104.7 1150.66C958.465 1027.41 819.694 899.509 732.832 729.128Z" stroke="#35CF72" stroke-opacity="0.2" stroke-width="3"/>
<path opacity="0.2575" fill-rule="evenodd" clip-rule="evenodd" d="M764.689 722.566C671.371 522.559 521.174 284.902 623.58 89.3927C729.64 -113.094 1039.63 -68.6769 1238.32 -181.683C1393.4 -269.88 1478.84 -481.682 1656.48 -498.063C1834.04 -514.435 1950.75 -300.686 2125.12 -263.456C2391.24 -206.638 2774.16 -454.482 2924.11 -227.415C3070.56 -5.6641 2662.46 231.196 2625.58 494.367C2594.86 713.63 2876.46 967.551 2733.01 1136.2C2583.27 1312.26 2276.58 1102.56 2054.33 1165.99C1872.31 1217.94 1773.79 1465.85 1584.52 1463.99C1395.52 1462.13 1261.8 1283.6 1121.62 1156.82C979.775 1028.54 845.552 895.875 764.689 722.566Z" stroke="#35CF72" stroke-opacity="0.2" stroke-width="3"/>
<path opacity="0.21625" fill-rule="evenodd" clip-rule="evenodd" d="M796.756 717.12C710.474 513.978 568.664 271.224 677.83 79.4077C790.892 -119.254 1099.14 -64.0457 1301.66 -170.048C1459.72 -252.78 1552.5 -461.471 1730.61 -471.642C1908.62 -481.808 2017.8 -264.116 2190.77 -220.823C2454.74 -154.753 2846.08 -389.081 2988.02 -156.92C3126.63 69.8071 2710.52 292.28 2664.48 554.004C2626.12 772.061 2898.69 1035.66 2749.45 1199.2C2593.65 1369.92 2294.47 1149.64 2070.14 1205.28C1886.42 1250.84 1779.3 1495.17 1590.21 1486.7C1401.39 1478.25 1273.99 1295.16 1138.31 1163.56C1001.03 1030.41 871.521 893.145 796.756 717.12Z" stroke="#35CF72" stroke-opacity="0.2" stroke-width="3"/>
<path opacity="0.175" fill-rule="evenodd" clip-rule="evenodd" d="M828.994 712.796C749.854 506.767 616.601 259.212 732.395 71.3221C852.322 -123.273 1158.46 -57.3404 1364.55 -156.21C1525.4 -233.375 1625.41 -438.702 1803.76 -442.651C1982.02 -446.598 2083.54 -225.228 2254.89 -175.925C2516.4 -100.682 2915.67 -321.211 3049.42 -84.2371C3180.04 147.189 2756.42 355.005 2701.27 614.962C2655.33 831.548 2918.53 1104.49 2763.67 1262.73C2602.01 1427.91 2310.7 1197.32 2084.56 1245.1C1899.36 1284.22 1783.79 1524.66 1595.1 1509.6C1406.69 1494.57 1285.76 1307.14 1154.76 1170.89C1022.21 1033.03 897.569 891.324 828.994 712.796Z" stroke="#35CF72" stroke-opacity="0.2" stroke-width="3"/>
<path opacity="0.13375" fill-rule="evenodd" clip-rule="evenodd" d="M861.362 709.6C789.461 500.935 664.929 248.88 787.21 65.1457C913.855 -125.146 1217.5 -48.569 1426.92 -140.186C1590.36 -211.691 1697.48 -413.402 1875.86 -411.124C2054.15 -408.847 2147.88 -184.069 2317.41 -128.816C2576.13 -44.4932 2982.86 -250.952 3108.26 -9.45551C3230.72 226.388 2800.1 419.293 2735.92 677.168C2682.44 892.018 2935.96 1173.98 2775.67 1326.72C2608.34 1486.16 2325.25 1245.54 2097.59 1285.4C1911.14 1318.04 1787.24 1554.29 1599.2 1532.66C1411.43 1511.05 1297.11 1319.52 1170.94 1178.78C1043.29 1036.38 923.666 890.412 861.362 709.6Z" stroke="#35CF72" stroke-opacity="0.2" stroke-width="3"/>
<path opacity="0.0925" fill-rule="evenodd" clip-rule="evenodd" d="M893.822 707.536C829.247 496.488 713.588 240.241 842.207 60.8859C975.415 -124.87 1276.21 -37.7425 1488.69 -121.995C1654.53 -187.752 1768.62 -385.602 1946.82 -377.1C2124.92 -368.603 2210.75 -140.691 2378.24 -79.5544C2633.86 13.7461 3047.55 -178.393 3164.44 67.3334C3278.6 307.307 2841.51 485.067 2768.37 740.544C2707.42 953.397 2950.95 1244.04 2785.43 1391.08C2612.63 1544.59 2338.12 1294.24 2109.2 1326.13C1921.73 1352.24 1789.66 1584.03 1602.48 1555.84C1415.58 1527.7 1308.02 1332.29 1186.84 1187.24C1064.23 1040.47 949.778 890.412 893.822 707.536Z" stroke="#35CF72" stroke-opacity="0.2" stroke-width="3"/>
<path opacity="0.05125" fill-rule="evenodd" clip-rule="evenodd" d="M926.335 706.605C869.165 493.433 762.519 233.305 897.318 58.5482C1036.93 -122.445 1334.5 -24.8738 1549.79 -101.66C1717.83 -161.589 1838.75 -355.337 2016.54 -340.621C2194.24 -325.913 2272.06 -95.1442 2437.32 -28.1998C2689.52 73.9648 3109.67 -103.619 3217.91 146.037C3323.63 389.848 2880.6 552.246 2798.58 805.014C2730.25 1015.61 2963.48 1314.57 2792.93 1455.75C2614.89 1603.13 2349.28 1343.36 2119.39 1367.23C1931.11 1386.79 1791.04 1613.83 1604.96 1579.13C1419.15 1544.48 1318.47 1345.44 1202.43 1196.24C1085.02 1045.28 975.874 891.323 926.335 706.605Z" stroke="#35CF72" stroke-opacity="0.2" stroke-width="3"/>
<path opacity="0.01" fill-rule="evenodd" clip-rule="evenodd" d="M958.856 706.806C909.161 491.769 811.658 228.077 952.474 58.1314C1098.32 -117.88 1392.3 -9.98256 1610.14 -79.2079C1780.17 -133.236 1907.78 -322.646 2084.95 -301.734C2262.02 -280.834 2331.74 -47.4897 2494.56 25.1815C2743.05 136.086 3169.14 -26.7275 3268.6 226.554C3365.74 473.907 2917.32 620.744 2826.53 870.496C2750.89 1078.58 2973.55 1385.5 2798.17 1520.64C2615.09 1661.72 2358.71 1392.83 2128.12 1408.67C1939.28 1421.64 1791.37 1643.65 1606.62 1602.48C1422.13 1561.37 1328.46 1358.93 1217.7 1205.78C1105.63 1050.81 1001.92 893.141 958.856 706.806Z" stroke="#35CF72" stroke-opacity="0.2" stroke-width="3"/>
</svg>
