<svg width="70" height="70" viewBox="0 0 70 70" fill="none" xmlns="http://www.w3.org/2000/svg">
<path d="M0 4.57812C0 2.36899 1.79086 0.578125 4 0.578125H65.2683C67.4774 0.578125 69.2683 2.36899 69.2683 4.57812V65.8464C69.2683 68.0556 67.4774 69.8464 65.2683 69.8464H4C1.79086 69.8464 0 68.0556 0 65.8464V4.57812Z" fill="#9DCCFF" fill-opacity="0.3"/>
<path d="M47.25 24.6641V27.3008C47.25 29.7031 41.332 31.5781 34.125 31.5781C26.8594 31.5781 21 29.7031 21 27.3008V24.6641C21 22.2617 26.8594 20.3281 34.125 20.3281C41.332 20.3281 47.25 22.2617 47.25 24.6641ZM47.25 30.6406V36.6758C47.25 39.0781 41.332 40.9531 34.125 40.9531C26.8594 40.9531 21 39.0781 21 36.6758V30.6406C23.8125 32.6328 28.9688 33.5117 34.125 33.5117C39.2227 33.5117 44.3789 32.6328 47.25 30.6406ZM47.25 40.0156V46.0508C47.25 48.4531 41.332 50.3281 34.125 50.3281C26.8594 50.3281 21 48.4531 21 46.0508V40.0156C23.8125 42.0078 28.9688 42.8867 34.125 42.8867C39.2227 42.8867 44.3789 42.0078 47.25 40.0156Z" fill="#9DCCFF"/>
</svg>
