<svg width="345" height="44" viewBox="0 0 345 44" fill="none" xmlns="http://www.w3.org/2000/svg">
<mask id="mask0_484_1028" style="mask-type:luminance" maskUnits="userSpaceOnUse" x="2" y="0" width="342" height="44">
<path d="M343.66 0H2.57617V43.425H343.66V0Z" fill="white"/>
</mask>
<g mask="url(#mask0_484_1028)">
<path fill-rule="evenodd" clip-rule="evenodd" d="M342.783 0H333.361C332.936 0 332.513 0.173353 332.174 0.462275L314.764 16.4108L297.409 0.462275C297.069 0.173353 296.647 0.028892 296.222 0H286.827C286.148 0 286.007 0.375598 286.515 0.808981L309.175 21.5824L286.234 42.6159C285.753 43.0782 285.894 43.425 286.543 43.425H295.941C296.366 43.425 296.788 43.2514 297.127 42.9627L314.819 26.7541L332.513 42.9627C332.85 43.2514 333.248 43.3961 333.697 43.425H343.068C343.744 43.425 343.885 43.0493 343.377 42.6159L320.436 21.5824L343.123 0.808981C343.603 0.346706 343.462 0 342.814 0H342.783Z" fill="#0B1F33"/>
<path d="M44.5661 0H3.16876C2.99946 0 2.85837 0.0866764 2.74549 0.202245C2.63261 0.317815 2.57617 0.462275 2.57617 0.606735V42.8183C2.57617 42.9627 2.63261 43.136 2.74549 43.2226C2.85837 43.3384 2.99946 43.3961 3.16876 43.3961H11.3241C11.4652 43.3961 11.6345 43.3384 11.7473 43.2226C11.8602 43.1071 11.9167 42.9627 11.9167 42.8183V8.78323C11.9167 8.63877 11.9731 8.46541 12.086 8.37873C12.1988 8.26317 12.3399 8.20537 12.5093 8.20537H44.5661C44.7071 8.20537 44.8766 8.14759 44.9895 8.03204C45.1021 7.91645 45.1587 7.772 45.1587 7.62754V0.606735C45.1587 0.462275 45.1021 0.288921 44.9895 0.202245C44.8766 0.0866764 44.7353 0.0288921 44.5661 0.0288921V0Z" fill="#0B1F33"/>
<path d="M159.615 8.1769C159.756 8.1769 159.925 8.11909 160.038 8.00354C160.151 7.88796 160.208 7.7435 160.208 7.59904V0.607141C160.208 0.462678 160.151 0.289327 160.038 0.20265C159.925 0.0870813 159.784 0.0292969 159.615 0.0292969H133.512C127.784 0.0292969 122.281 2.31178 118.246 6.35667C114.182 10.4305 111.925 15.9489 111.925 21.6984C111.925 27.448 114.211 32.9663 118.246 37.0402C122.31 41.114 127.784 43.3965 133.512 43.3965H159.615C159.756 43.3965 159.925 43.3099 160.038 43.1941C160.151 43.0786 160.208 42.9342 160.208 42.7896V35.7977C160.208 35.6533 160.151 35.4801 160.038 35.3932C159.925 35.2777 159.784 35.2199 159.615 35.2199H134.669C131.142 35.1622 127.756 33.7176 125.272 31.2038C122.789 28.6903 121.378 25.281 121.378 21.7273C121.378 18.1736 122.761 14.7643 125.272 12.2507C127.756 9.73706 131.142 8.29245 134.669 8.26358H159.615V8.1769Z" fill="#0B1F33"/>
<path d="M268.71 26.0896C272.153 26.0896 275.426 24.7028 277.852 22.2759C280.281 19.8489 281.633 16.5552 281.633 13.0882V13.0015C281.633 9.56332 280.281 6.26962 277.852 3.81376C275.426 1.38682 272.153 0 268.71 0H250.622C244.893 0 239.391 2.28248 235.355 6.35627C231.292 10.4301 229.034 15.9485 229.034 21.698C229.034 27.4476 231.32 32.9659 235.355 37.0398C239.391 41.1136 244.893 43.3961 250.622 43.3961H278.191C278.332 43.3961 278.503 43.3384 278.614 43.2226C278.727 43.1071 278.785 42.9627 278.785 42.8183V35.7684C278.785 35.6241 278.727 35.4508 278.614 35.3639C278.503 35.2484 278.36 35.1907 278.191 35.1907H251.779C249.098 35.1907 246.474 34.3527 244.244 32.8504C242.015 31.3481 240.294 29.1811 239.306 26.6675C239.278 26.6097 239.25 26.5519 239.278 26.4652C239.278 26.4075 239.278 26.3208 239.334 26.263C239.362 26.2052 239.419 26.1474 239.475 26.1474C239.532 26.1474 239.616 26.1185 239.673 26.1185C242.41 26.1185 268.71 26.1185 268.71 26.1185V26.0896ZM239.08 17.3353C239.983 14.6772 241.705 12.3658 243.99 10.7479C246.276 9.12992 248.985 8.23427 251.779 8.23427H267.892C270.685 8.23427 272.943 10.2567 272.943 13.0593V13.1459C272.943 15.9485 270.685 17.9131 267.892 17.9131H239.475C239.475 17.9131 239.334 17.9131 239.278 17.8843C239.221 17.8843 239.165 17.7976 239.108 17.7687C239.08 17.7109 239.052 17.6531 239.024 17.5665C238.996 17.4798 239.024 17.422 239.052 17.3642L239.08 17.3353Z" fill="#0B1F33"/>
<path d="M97.8716 6.35627L92.0869 11.6436C92.0869 11.6436 91.974 11.7591 91.9456 11.8169C91.9174 11.8747 91.8893 11.9614 91.8893 12.048C91.8893 12.1347 91.8893 12.1925 91.9174 12.2792C91.9174 12.337 91.974 12.4236 92.0303 12.4814C93.8365 14.3883 95.0216 16.7864 95.5013 19.3866C95.9528 21.9869 95.6423 24.645 94.5982 27.072C93.5541 29.499 91.8327 31.5502 89.6319 32.9948C87.4308 34.4394 84.8629 35.2195 82.2666 35.1907H70.9508C67.4233 35.1618 64.037 33.7172 61.5539 31.2034C59.0707 28.6899 57.6595 25.2806 57.6595 21.7269C57.6595 18.1732 59.0423 14.7639 61.5539 12.2503C64.037 9.73665 67.4233 8.29205 70.9508 8.26317H82.2666C82.7747 8.26317 83.2544 8.26317 83.7622 8.34983C84.129 8.34983 84.4958 8.26317 84.7781 8.03204L91.2401 2.10913C91.2401 2.10913 91.3249 2.02245 91.353 1.96467C91.353 1.90688 91.3814 1.8491 91.353 1.76242C91.353 1.70464 91.2967 1.64685 91.2686 1.58907C91.212 1.53129 91.1557 1.50239 91.0991 1.50239C88.7288 0.491167 86.1043 0 83.4801 0H69.822C64.1218 0 58.6192 2.28248 54.5556 6.35627C50.4921 10.4301 48.2344 15.9485 48.2344 21.698C48.2344 27.4476 50.5202 32.9659 54.5556 37.0398C58.5907 41.1136 64.0936 43.3961 69.822 43.3961H83.4801C87.741 43.3961 91.9456 42.1248 95.5013 39.7557C99.057 37.3865 101.822 33.9771 103.459 30.019C105.096 26.0607 105.519 21.698 104.673 17.4798C103.826 13.2615 101.766 9.41886 98.7465 6.38517C98.6336 6.26962 98.4926 6.21181 98.3231 6.21181C98.1539 6.21181 98.0129 6.26962 97.9 6.38517L97.8716 6.35627Z" fill="#35CF72"/>
<path d="M168.532 8.20537H190.994C191.135 8.20537 191.305 8.26317 191.418 8.37873C191.53 8.49431 191.587 8.63877 191.587 8.78323V42.8183C191.587 42.9627 191.643 43.136 191.756 43.2226C191.869 43.3384 192.01 43.3961 192.18 43.3961H200.363C200.504 43.3961 200.673 43.3384 200.786 43.2226C200.899 43.1071 200.956 42.9627 200.956 42.8183V0C200.956 0 200.702 0 200.363 0H168.56C168.419 0 168.25 0.0577844 168.137 0.173353C168.024 0.288921 167.968 0.433384 167.968 0.577844V7.62754C167.968 7.772 168.024 7.94536 168.137 8.03204C168.25 8.14759 168.391 8.20537 168.56 8.20537H168.532Z" fill="#0B1F33"/>
<path d="M223.955 0H208.632C208.321 0 208.039 0.26003 208.039 0.577844V7.62754C208.039 7.94536 208.293 8.20537 208.632 8.20537H223.955C224.265 8.20537 224.547 7.94536 224.547 7.62754V0.577844C224.547 0.26003 224.293 0 223.955 0Z" fill="#35CF72"/>
</g>
</svg>
