<svg width="64" height="64" viewBox="0 0 64 64" fill="none" xmlns="http://www.w3.org/2000/svg">
<path fill-rule="evenodd" clip-rule="evenodd" d="M13.5431 18.8166C9.17574 18.8143 5.63692 15.2724 5.63845 10.9051C5.63997 6.53769 9.18126 2.99826 13.5486 2.99902C17.916 2.99979 21.4561 6.54045 21.4561 10.9078C21.4561 13.0061 20.6222 15.0184 19.1382 16.5017C17.6541 17.985 15.6414 18.8177 13.5431 18.8166Z" fill="#FFEFC4" stroke="black" stroke-width="5" stroke-linecap="round" stroke-linejoin="round"/>
<path fill-rule="evenodd" clip-rule="evenodd" d="M50.4564 45.1816C54.8243 45.1816 58.3652 48.7225 58.3652 53.0904C58.3652 57.4584 54.8243 60.9992 50.4564 60.9992C46.0885 60.9992 42.5476 57.4584 42.5476 53.0904C42.5476 48.7225 46.0885 45.1816 50.4564 45.1816V45.1816Z" fill="#35CF72" stroke="black" stroke-width="5" stroke-linecap="round" stroke-linejoin="round"/>
<path d="M50.5911 29.365C50.5911 30.7457 51.7104 31.865 53.0911 31.865C54.4719 31.865 55.5911 30.7457 55.5911 29.365L50.5911 29.365ZM53.0911 22.2641L55.5911 22.2641C55.5911 22.2593 55.5911 22.2544 55.5911 22.2496L53.0911 22.2641ZM41.607 10.9084L41.607 13.4084L41.6207 13.4083L41.607 10.9084ZM21.4559 8.40838C20.0752 8.40838 18.9559 9.52766 18.9559 10.9084C18.9559 12.2891 20.0752 13.4084 21.4559 13.4084L21.4559 8.40838ZM51.3234 27.5975C50.3471 28.5739 50.3471 30.1568 51.3234 31.1331C52.2997 32.1094 53.8827 32.1094 54.859 31.1331L51.3234 27.5975ZM62.7678 23.2243C63.7441 22.248 63.7441 20.665 62.7678 19.6887C61.7915 18.7124 60.2085 18.7124 59.2322 19.6887L62.7678 23.2243ZM51.3234 31.1331C52.2997 32.1094 53.8826 32.1094 54.8589 31.1331C55.8352 30.1568 55.8352 28.5739 54.8589 27.5975L51.3234 31.1331ZM46.9501 19.6887C45.9738 18.7124 44.3909 18.7124 43.4146 19.6887C42.4383 20.665 42.4383 22.248 43.4146 23.2243L46.9501 19.6887ZM13.4076 34.6395C13.4076 33.2588 12.2883 32.1395 10.9076 32.1395C9.52692 32.1395 8.40763 33.2588 8.40763 34.6395L13.4076 34.6395ZM10.9076 41.7363L8.40763 41.7363C8.40763 41.7411 8.40764 41.746 8.40767 41.7508L10.9076 41.7363ZM22.3918 53.092L22.3918 50.592L22.3781 50.592L22.3918 53.092ZM42.5428 55.592C43.9236 55.592 45.0428 54.4727 45.0428 53.092C45.0428 51.7113 43.9236 50.592 42.5428 50.592L42.5428 55.592ZM12.6764 36.4025C13.6527 35.4262 13.6527 33.8433 12.6764 32.867C11.7001 31.8907 10.1171 31.8907 9.14083 32.867L12.6764 36.4025ZM1.23203 40.7758C0.255717 41.7521 0.255717 43.335 1.23203 44.3113C2.20834 45.2877 3.79125 45.2877 4.76756 44.3113L1.23203 40.7758ZM12.6764 32.867C11.7001 31.8907 10.1172 31.8907 9.14088 32.867C8.16457 33.8433 8.16457 35.4262 9.14088 36.4025L12.6764 32.867ZM17.0497 44.3113C18.026 45.2877 19.6089 45.2877 20.5852 44.3113C21.5615 43.335 21.5615 41.7521 20.5852 40.7758L17.0497 44.3113ZM55.5911 29.365L55.5911 22.2641L50.5911 22.2641L50.5911 29.365L55.5911 29.365ZM55.5911 22.2496C55.5466 14.5626 49.2804 8.36646 41.5934 8.40841L41.6207 13.4083C46.5469 13.3815 50.5627 17.3523 50.5912 22.2785L55.5911 22.2496ZM41.607 8.40838L21.4559 8.40838L21.4559 13.4084L41.607 13.4084L41.607 8.40838ZM54.859 31.1331L62.7678 23.2243L59.2322 19.6887L51.3234 27.5975L54.859 31.1331ZM54.8589 27.5975L46.9501 19.6887L43.4146 23.2243L51.3234 31.1331L54.8589 27.5975ZM8.40763 34.6395L8.40763 41.7363L13.4076 41.7363L13.4076 34.6395L8.40763 34.6395ZM8.40767 41.7508C8.45217 49.4377 14.7184 55.6339 22.4054 55.592L22.3781 50.592C17.4519 50.6189 13.4361 46.6481 13.4076 41.7218L8.40767 41.7508ZM22.3918 55.592L42.5428 55.592L42.5428 50.592L22.3918 50.592L22.3918 55.592ZM9.14083 32.867L1.23203 40.7758L4.76756 44.3113L12.6764 36.4025L9.14083 32.867ZM9.14088 36.4025L17.0497 44.3113L20.5852 40.7758L12.6764 32.867L9.14088 36.4025Z" fill="black"/>
</svg>
