<svg width="70" height="70" viewBox="0 0 70 70" fill="none" xmlns="http://www.w3.org/2000/svg">
<path d="M0 4.15625C0 1.94711 1.79086 0.15625 4 0.15625H65.2683C67.4774 0.15625 69.2683 1.94711 69.2683 4.15625V65.4245C69.2683 67.6337 67.4774 69.4245 65.2683 69.4245H4C1.79086 69.4245 0 67.6337 0 65.4245V4.15625Z" fill="#F48C06" fill-opacity="0.3"/>
<path d="M48.9375 19.9062C50.4609 19.9062 51.75 21.1953 51.75 22.7188V41.4688C51.75 43.0508 50.4609 44.2812 48.9375 44.2812H37.6875L38.625 47.0938H42.8438C43.6055 47.0938 44.25 47.7383 44.25 48.5C44.25 49.3203 43.6055 49.9062 42.8438 49.9062H26.9062C26.0859 49.9062 25.5 49.3203 25.5 48.5C25.5 47.7383 26.0859 47.0938 26.9062 47.0938H31.125L32.0625 44.2812H20.8125C19.2305 44.2812 18 43.0508 18 41.4688V22.7188C18 21.1953 19.2305 19.9062 20.8125 19.9062H48.9375ZM48 40.5312V23.6562H21.75V40.5312H48Z" fill="#F48C06"/>
</svg>
