<svg width="51" height="92" viewBox="0 0 51 92" fill="none" xmlns="http://www.w3.org/2000/svg">
<g id="Group 21">
<path id="&#208;&#155;&#208;&#190;&#208;&#179;&#208;&#190;&#208;&#177;&#209;&#131;&#208;&#186; 1 (Traced)" fill-rule="evenodd" clip-rule="evenodd" d="M23.3674 0.440361C22.8074 1.05345 16.6278 12.3623 16.0903 13.758C15.221 16.0147 15.6527 20.0109 17.0996 23.1031C17.6502 24.2795 23.2537 33.1547 23.82 33.7472C24.0536 33.9916 24.2914 33.8991 25.5082 33.0899L26.9246 32.1481L29.1151 27.6263C31.5571 22.586 32.1466 20.9429 32.5015 18.1891C32.7817 16.0139 32.6484 14.3878 32.0615 12.8188C31.5211 11.375 25.5917 0.565056 25.1619 0.240529C24.6479 -0.147545 23.8202 -0.0554224 23.3674 0.440361ZM0.666845 24.1926C0.468411 24.3081 0.231011 24.5999 0.139088 24.8413C-0.0899194 25.4438 1.41382 37.8849 1.91879 39.5635C2.54607 41.6493 4.2918 43.9208 6.82267 45.9441C7.48212 46.4713 10.8767 48.4786 14.3663 50.405L20.711 53.9072L20.7086 52.2776C20.7072 51.3816 20.5749 48.1303 20.4145 45.0529C20.0863 38.76 19.8329 37.3653 18.5286 34.6706C17.6116 32.7758 16.4188 31.3486 15.0218 30.4743C13.5686 29.5647 1.83646 23.9694 1.39763 23.9766C1.194 23.98 0.865278 24.0771 0.666845 24.1926ZM47.5884 24.4822C47.0389 24.7501 44.0022 26.2229 40.8405 27.755C35.5645 30.3113 34.997 30.636 33.9427 31.7017C32.0057 33.6599 30.7044 36.7027 30.3267 40.157C30.0821 42.3955 29.6291 52.3741 29.732 53.2574L29.8034 53.8681L36.1209 50.3598C43.0668 46.5025 43.8634 45.9747 45.6958 44.0158C48.4185 41.1052 48.6509 40.3912 49.6771 31.7884C50.5018 24.8754 50.5024 24.6071 49.6953 24.175C49.1353 23.8753 48.7039 23.9382 47.5884 24.4822ZM25.2892 35.4819L23.9723 36.3766L23.843 46.8096C23.6366 63.4522 22.9903 75.627 21.6944 87.2828C21.1349 92.3146 21.2565 92.4159 24.9075 89.9614C26.5241 88.8745 27.2613 88.254 27.3934 87.8687C27.5111 87.5254 27.4917 79.0285 27.3412 65.0879C27.0938 42.1713 26.941 34.5523 26.7286 34.5745C26.6612 34.5817 26.0136 34.9899 25.2892 35.4819ZM0.33932 47.6817C0.0443676 48.0568 -0.0483545 48.3937 0.0227858 48.8307C0.0783391 49.1708 0.44663 52.1919 0.841498 55.5441C1.74174 63.1894 1.99833 64.0154 4.30779 66.7011C6.01575 68.6872 7.73151 69.86 14.0442 73.3567C17.4362 75.2355 20.3239 76.8168 20.4612 76.8708C20.7939 77.0014 20.7841 75.1468 20.4153 68.1335C20.0837 61.8262 19.8285 60.4817 18.4199 57.6199C17.7197 56.1971 17.2477 55.5419 16.2611 54.6224C15.1233 53.5621 14.3502 53.1347 8.43892 50.2985C4.7726 48.5394 1.63183 47.1511 1.3181 47.1511C0.948609 47.1511 0.614089 47.3326 0.33932 47.6817ZM42.9923 49.7665C40.0248 51.1999 37.1242 52.5985 36.5467 52.8743C33.4397 54.3583 31.257 57.5534 30.4227 61.8388C30.1131 63.4288 29.3723 76.6617 29.5814 76.8706C29.6885 76.9777 40.3105 71.2135 42.2231 70.0103C43.6417 69.1179 45.955 66.8951 47.0237 65.3976C48.4257 63.4326 48.6457 62.5426 49.507 55.3442C49.9345 51.7722 50.2848 48.6475 50.2852 48.4001C50.2866 47.783 49.6009 47.1501 48.9373 47.1557C48.6352 47.1583 45.9598 48.3331 42.9923 49.7665Z" fill="url(#paint0_radial_84_21)"/>
</g>
<defs>
<radialGradient id="paint0_radial_84_21" cx="0" cy="0" r="1" gradientUnits="userSpaceOnUse" gradientTransform="translate(15.3871 85.9278) rotate(-73.3236) scale(72.0734 39.607)">
<stop stop-color="#35CF72"/>
<stop offset="1" stop-color="#40BB8F"/>
</radialGradient>
</defs>
</svg>
