<svg width="70" height="70" viewBox="0 0 70 70" fill="none" xmlns="http://www.w3.org/2000/svg">
<path d="M0 4.57812C0 2.36899 1.79086 0.578125 4 0.578125H65.2683C67.4774 0.578125 69.2683 2.36899 69.2683 4.57812V65.8464C69.2683 68.0556 67.4774 69.8464 65.2683 69.8464H4C1.79086 69.8464 0 68.0556 0 65.8464V4.57812Z" fill="white" fill-opacity="0.3"/>
<path d="M38.75 40.0156V37.2031H50V45.6406C50 47.1641 48.6523 48.4531 47.1875 48.4531H22.8125C21.2891 48.4531 20 47.1641 20 45.6406V37.2031H31.25V40.0156C31.25 40.543 31.6602 40.9531 32.1875 40.9531H37.8125C38.2812 40.9531 38.75 40.543 38.75 40.0156ZM47.1875 27.8281C48.6523 27.8281 50 29.1758 50 30.6406V35.3281H20V30.6406C20 29.1758 21.2891 27.8281 22.8125 27.8281H27.5V25.0156C27.5 23.5508 28.7891 22.2031 30.3125 22.2031H39.6875C41.1523 22.2031 42.5 23.5508 42.5 25.0156V27.8281H47.1875ZM38.75 27.8281V25.9531H31.25V27.8281H38.75Z" fill="white"/>
</svg>
