<svg width="285" height="289" viewBox="0 0 285 289" fill="none" xmlns="http://www.w3.org/2000/svg">
<rect width="285" height="288.958" rx="14" fill="white"/>
<path d="M37.208 248.638C37.208 248.638 48.0993 214.827 53.4012 201.378C59.0144 187.14 64.5203 175.485 69.9187 166.413C75.4634 157.095 80.8948 150.502 86.213 146.635C90.5638 143.471 101.504 143.006 102.685 143.347C108.838 145.128 114.075 149.465 119.048 155.035C124.59 161.242 129.804 168.982 135.593 176.42C140.433 182.638 145.675 188.646 151.846 193.374C156.639 197.045 161.993 199.944 168.156 201.569C171.686 202.5 182.928 202.877 184.595 202.613C190.086 201.744 195.554 199.49 200.91 196.153C206.63 192.589 212.223 187.789 217.58 182.12C223.346 176.017 228.838 168.908 233.923 161.249C240.073 151.984 245.626 141.915 250.343 131.852C260.435 110.319 266.698 88.8113 266.791 75.2627" stroke="#00B69B" stroke-width="4" stroke-linecap="round"/>
<path fill-rule="evenodd" clip-rule="evenodd" d="M36.4167 253.334C38.1656 253.334 39.5833 251.917 39.5833 250.168C39.5833 248.419 38.1656 247.001 36.4167 247.001C34.6678 247.001 33.25 248.419 33.25 250.168C33.25 251.917 34.6678 253.334 36.4167 253.334Z" fill="#00B69B" stroke="white" stroke-width="1.4"/>
<path fill-rule="evenodd" clip-rule="evenodd" d="M52.2497 206.625C53.9986 206.625 55.4163 205.208 55.4163 203.459C55.4163 201.71 53.9986 200.292 52.2497 200.292C50.5008 200.292 49.083 201.71 49.083 203.459C49.083 205.208 50.5008 206.625 52.2497 206.625Z" fill="#00B69B" stroke="white" stroke-width="1.4"/>
<path fill-rule="evenodd" clip-rule="evenodd" d="M67.2917 173.375C69.0406 173.375 70.4583 171.958 70.4583 170.209C70.4583 168.46 69.0406 167.042 67.2917 167.042C65.5428 167.042 64.125 168.46 64.125 170.209C64.125 171.958 65.5428 173.375 67.2917 173.375Z" fill="#00B69B" stroke="white" stroke-width="1.4"/>
<path fill-rule="evenodd" clip-rule="evenodd" d="M102.125 146.459C103.874 146.459 105.291 145.042 105.291 143.293C105.291 141.544 103.874 140.126 102.125 140.126C100.376 140.126 98.958 141.544 98.958 143.293C98.958 145.042 100.376 146.459 102.125 146.459Z" fill="#00B69B" stroke="white" stroke-width="1.4"/>
<path fill-rule="evenodd" clip-rule="evenodd" d="M134.584 177.334C136.333 177.334 137.75 175.917 137.75 174.168C137.75 172.419 136.333 171.001 134.584 171.001C132.835 171.001 131.417 172.419 131.417 174.168C131.417 175.917 132.835 177.334 134.584 177.334Z" fill="#00B69B" stroke="white" stroke-width="1.4"/>
<path fill-rule="evenodd" clip-rule="evenodd" d="M184.459 205.834C186.208 205.834 187.625 204.417 187.625 202.668C187.625 200.919 186.208 199.501 184.459 199.501C182.71 199.501 181.292 200.919 181.292 202.668C181.292 204.417 182.71 205.834 184.459 205.834Z" fill="#00B69B" stroke="white" stroke-width="1.4"/>
<path fill-rule="evenodd" clip-rule="evenodd" d="M231.959 166.25C233.708 166.25 235.125 164.833 235.125 163.084C235.125 161.335 233.708 159.917 231.959 159.917C230.21 159.917 228.792 161.335 228.792 163.084C228.792 164.833 230.21 166.25 231.959 166.25Z" fill="#00B69B" stroke="white" stroke-width="1.4"/>
<path fill-rule="evenodd" clip-rule="evenodd" d="M213.75 189.209C215.499 189.209 216.916 187.792 216.916 186.043C216.916 184.294 215.499 182.876 213.75 182.876C212.001 182.876 210.583 184.294 210.583 186.043C210.583 187.792 212.001 189.209 213.75 189.209Z" fill="#00B69B" stroke="white" stroke-width="1.4"/>
<path fill-rule="evenodd" clip-rule="evenodd" d="M261.25 106.875C262.999 106.875 264.416 105.458 264.416 103.709C264.416 101.96 262.999 100.542 261.25 100.542C259.501 100.542 258.083 101.96 258.083 103.709C258.083 105.458 259.501 106.875 261.25 106.875Z" fill="#00B69B" stroke="white" stroke-width="1.4"/>
<path fill-rule="evenodd" clip-rule="evenodd" d="M266.792 79.1673C268.541 79.1673 269.958 77.7496 269.958 76.0007C269.958 74.2517 268.541 72.834 266.792 72.834C265.043 72.834 263.625 74.2517 263.625 76.0007C263.625 77.7496 265.043 79.1673 266.792 79.1673Z" fill="#00B69B" stroke="white" stroke-width="1.4"/>
<path fill-rule="evenodd" clip-rule="evenodd" d="M250.167 135.375C251.916 135.375 253.333 133.958 253.333 132.209C253.333 130.46 251.916 129.042 250.167 129.042C248.418 129.042 247 130.46 247 132.209C247 133.958 248.418 135.375 250.167 135.375Z" fill="#00B69B" stroke="white" stroke-width="1.4"/>
<path d="M37.208 201.876C37.208 201.876 47.3481 175.784 52.2844 165.406C57.5105 154.418 62.6367 145.424 67.6628 138.423C72.8251 131.233 77.882 126.146 82.8334 123.161C86.8841 120.719 97.0701 120.361 98.1691 120.624C103.898 121.998 108.774 125.345 113.403 129.643C118.564 134.434 123.418 140.406 128.808 146.146C133.314 150.945 138.194 155.581 143.94 159.229C148.402 162.062 153.387 164.3 159.125 165.553C162.412 166.272 172.878 166.562 174.431 166.359C179.543 165.688 184.634 163.949 189.62 161.374C194.946 158.624 200.153 154.919 205.14 150.544C210.509 145.835 215.622 140.349 220.356 134.439C226.082 127.289 231.252 119.519 235.644 111.753C245.04 95.1365 250.871 78.5393 250.958 68.084" stroke="#4880FF" stroke-width="4" stroke-linecap="round"/>
<path fill-rule="evenodd" clip-rule="evenodd" d="M36.0208 206.626C37.5511 206.626 38.7917 205.563 38.7917 204.251C38.7917 202.939 37.5511 201.876 36.0208 201.876C34.4905 201.876 33.25 202.939 33.25 204.251C33.25 205.563 34.4905 206.626 36.0208 206.626Z" fill="#00B69B" stroke="#4880FF" stroke-width="1.4"/>
<path fill-rule="evenodd" clip-rule="evenodd" d="M51.0628 170.209C52.5931 170.209 53.8337 169.146 53.8337 167.834C53.8337 166.522 52.5931 165.459 51.0628 165.459C49.5325 165.459 48.292 166.522 48.292 167.834C48.292 169.146 49.5325 170.209 51.0628 170.209Z" fill="#00B69B" stroke="#4880FF" stroke-width="1.4"/>
<path fill-rule="evenodd" clip-rule="evenodd" d="M65.3128 144.084C66.8431 144.084 68.0837 143.021 68.0837 141.709C68.0837 140.397 66.8431 139.334 65.3128 139.334C63.7825 139.334 62.542 140.397 62.542 141.709C62.542 143.021 63.7825 144.084 65.3128 144.084Z" fill="#00B69B" stroke="#4880FF" stroke-width="1.4"/>
<path fill-rule="evenodd" clip-rule="evenodd" d="M97.7708 122.709C99.3011 122.709 100.542 121.646 100.542 120.334C100.542 119.022 99.3011 117.959 97.7708 117.959C96.2405 117.959 95 119.022 95 120.334C95 121.646 96.2405 122.709 97.7708 122.709Z" fill="#00B69B" stroke="#4880FF" stroke-width="1.4"/>
<path fill-rule="evenodd" clip-rule="evenodd" d="M127.854 147.251C129.384 147.251 130.625 146.188 130.625 144.876C130.625 143.564 129.384 142.501 127.854 142.501C126.324 142.501 125.083 143.564 125.083 144.876C125.083 146.188 126.324 147.251 127.854 147.251Z" fill="#00B69B" stroke="#4880FF" stroke-width="1.4"/>
<path fill-rule="evenodd" clip-rule="evenodd" d="M174.563 169.417C176.093 169.417 177.334 168.354 177.334 167.042C177.334 165.73 176.093 164.667 174.563 164.667C173.033 164.667 171.792 165.73 171.792 167.042C171.792 168.354 173.033 169.417 174.563 169.417Z" fill="#00B69B" stroke="#4880FF" stroke-width="1.4"/>
<path fill-rule="evenodd" clip-rule="evenodd" d="M218.896 138.542C220.426 138.542 221.667 137.479 221.667 136.167C221.667 134.855 220.426 133.792 218.896 133.792C217.366 133.792 216.125 134.855 216.125 136.167C216.125 137.479 217.366 138.542 218.896 138.542Z" fill="#00B69B" stroke="#4880FF" stroke-width="1.4"/>
<path fill-rule="evenodd" clip-rule="evenodd" d="M201.479 156.751C203.009 156.751 204.25 155.688 204.25 154.376C204.25 153.064 203.009 152.001 201.479 152.001C199.949 152.001 198.708 153.064 198.708 154.376C198.708 155.688 199.949 156.751 201.479 156.751Z" fill="#00B69B" stroke="#4880FF" stroke-width="1.4"/>
<path fill-rule="evenodd" clip-rule="evenodd" d="M245.813 91.834C247.343 91.834 248.584 90.7707 248.584 89.459C248.584 88.1473 247.343 87.084 245.813 87.084C244.283 87.084 243.042 88.1473 243.042 89.459C243.042 90.7707 244.283 91.834 245.813 91.834Z" fill="#00B69B" stroke="#4880FF" stroke-width="1.4"/>
<path fill-rule="evenodd" clip-rule="evenodd" d="M251.354 70.459C252.884 70.459 254.125 69.3957 254.125 68.084C254.125 66.7723 252.884 65.709 251.354 65.709C249.824 65.709 248.583 66.7723 248.583 68.084C248.583 69.3957 249.824 70.459 251.354 70.459Z" fill="#00B69B" stroke="#4880FF" stroke-width="1.4"/>
<path fill-rule="evenodd" clip-rule="evenodd" d="M235.521 114.792C237.051 114.792 238.292 113.729 238.292 112.417C238.292 111.105 237.051 110.042 235.521 110.042C233.991 110.042 232.75 111.105 232.75 112.417C232.75 113.729 233.991 114.792 235.521 114.792Z" fill="#00B69B" stroke="#4880FF" stroke-width="1.4"/>
<path opacity="0.2" d="M36.417 249.771H272.334" stroke="#979797" stroke-width="0.3" stroke-linecap="square"/>
<path opacity="0.2" d="M36.417 203.063H272.334" stroke="#979797" stroke-width="0.3" stroke-linecap="square"/>
<path opacity="0.2" d="M36.417 156.354H272.334" stroke="#979797" stroke-width="0.3" stroke-linecap="square"/>
<path opacity="0.2" d="M36.417 109.646H272.334" stroke="#979797" stroke-width="0.3" stroke-linecap="square"/>
<path opacity="0.2" d="M36.417 62.9378H272.334" stroke="#979797" stroke-width="0.3" stroke-linecap="square"/>
<path d="M250.02 274V273.076L252.84 270.052C253.232 269.628 253.512 269.244 253.68 268.9C253.856 268.556 253.944 268.208 253.944 267.856C253.944 266.944 253.408 266.488 252.336 266.488C251.52 266.488 250.788 266.796 250.14 267.412L249.696 266.464C250.016 266.152 250.424 265.904 250.92 265.72C251.416 265.528 251.932 265.432 252.468 265.432C253.34 265.432 254.008 265.632 254.472 266.032C254.944 266.432 255.18 267.004 255.18 267.748C255.18 268.252 255.056 268.744 254.808 269.224C254.568 269.704 254.188 270.216 253.668 270.76L251.58 272.956H255.516V274H250.02ZM259.795 274.108C258.811 274.108 258.059 273.736 257.539 272.992C257.027 272.24 256.771 271.164 256.771 269.764C256.771 268.34 257.027 267.264 257.539 266.536C258.059 265.8 258.811 265.432 259.795 265.432C260.787 265.432 261.539 265.8 262.051 266.536C262.563 267.264 262.819 268.336 262.819 269.752C262.819 271.16 262.559 272.24 262.039 272.992C261.527 273.736 260.779 274.108 259.795 274.108ZM259.795 273.076C260.403 273.076 260.855 272.808 261.151 272.272C261.447 271.736 261.595 270.896 261.595 269.752C261.595 268.608 261.447 267.776 261.151 267.256C260.863 266.728 260.411 266.464 259.795 266.464C259.187 266.464 258.735 266.728 258.439 267.256C258.143 267.784 257.995 268.616 257.995 269.752C257.995 270.896 258.143 271.736 258.439 272.272C258.735 272.808 259.187 273.076 259.795 273.076ZM264.411 274V273.076L267.231 270.052C267.623 269.628 267.903 269.244 268.071 268.9C268.247 268.556 268.335 268.208 268.335 267.856C268.335 266.944 267.799 266.488 266.727 266.488C265.911 266.488 265.179 266.796 264.531 267.412L264.087 266.464C264.407 266.152 264.815 265.904 265.311 265.72C265.807 265.528 266.323 265.432 266.859 265.432C267.731 265.432 268.399 265.632 268.863 266.032C269.335 266.432 269.571 267.004 269.571 267.748C269.571 268.252 269.447 268.744 269.199 269.224C268.959 269.704 268.579 270.216 268.059 270.76L265.971 272.956H269.907V274H264.411ZM274.954 274V272.284H271.15V271.36L275.17 265.54H276.19V271.24H277.426V272.284H276.19V274H274.954ZM274.954 271.24V267.484L272.386 271.24H274.954Z" fill="#292C2F" fill-opacity="0.4"/>
<path d="M196.02 274V273.076L198.84 270.052C199.232 269.628 199.512 269.244 199.68 268.9C199.856 268.556 199.944 268.208 199.944 267.856C199.944 266.944 199.408 266.488 198.336 266.488C197.52 266.488 196.788 266.796 196.14 267.412L195.696 266.464C196.016 266.152 196.424 265.904 196.92 265.72C197.416 265.528 197.932 265.432 198.468 265.432C199.34 265.432 200.008 265.632 200.472 266.032C200.944 266.432 201.18 267.004 201.18 267.748C201.18 268.252 201.056 268.744 200.808 269.224C200.568 269.704 200.188 270.216 199.668 270.76L197.58 272.956H201.516V274H196.02ZM205.795 274.108C204.811 274.108 204.059 273.736 203.539 272.992C203.027 272.24 202.771 271.164 202.771 269.764C202.771 268.34 203.027 267.264 203.539 266.536C204.059 265.8 204.811 265.432 205.795 265.432C206.787 265.432 207.539 265.8 208.051 266.536C208.563 267.264 208.819 268.336 208.819 269.752C208.819 271.16 208.559 272.24 208.039 272.992C207.527 273.736 206.779 274.108 205.795 274.108ZM205.795 273.076C206.403 273.076 206.855 272.808 207.151 272.272C207.447 271.736 207.595 270.896 207.595 269.752C207.595 268.608 207.447 267.776 207.151 267.256C206.863 266.728 206.411 266.464 205.795 266.464C205.187 266.464 204.735 266.728 204.439 267.256C204.143 267.784 203.995 268.616 203.995 269.752C203.995 270.896 204.143 271.736 204.439 272.272C204.735 272.808 205.187 273.076 205.795 273.076ZM210.411 274V273.076L213.231 270.052C213.623 269.628 213.903 269.244 214.071 268.9C214.247 268.556 214.335 268.208 214.335 267.856C214.335 266.944 213.799 266.488 212.727 266.488C211.911 266.488 211.179 266.796 210.531 267.412L210.087 266.464C210.407 266.152 210.815 265.904 211.311 265.72C211.807 265.528 212.323 265.432 212.859 265.432C213.731 265.432 214.399 265.632 214.863 266.032C215.335 266.432 215.571 267.004 215.571 267.748C215.571 268.252 215.447 268.744 215.199 269.224C214.959 269.704 214.579 270.216 214.059 270.76L211.971 272.956H215.907V274H210.411ZM220.054 274.108C219.486 274.108 218.946 274.024 218.434 273.856C217.922 273.68 217.494 273.436 217.15 273.124L217.582 272.164C217.958 272.468 218.346 272.692 218.746 272.836C219.146 272.98 219.57 273.052 220.018 273.052C220.594 273.052 221.03 272.928 221.326 272.68C221.63 272.432 221.782 272.076 221.782 271.612C221.782 271.148 221.63 270.804 221.326 270.58C221.03 270.356 220.598 270.244 220.03 270.244H218.722V269.2H219.91C220.414 269.2 220.81 269.072 221.098 268.816C221.394 268.56 221.542 268.208 221.542 267.76C221.542 267.352 221.406 267.04 221.134 266.824C220.862 266.6 220.474 266.488 219.97 266.488C219.114 266.488 218.366 266.796 217.726 267.412L217.294 266.464C217.622 266.136 218.03 265.884 218.518 265.708C219.014 265.524 219.53 265.432 220.066 265.432C220.914 265.432 221.574 265.628 222.046 266.02C222.518 266.404 222.754 266.94 222.754 267.628C222.754 268.092 222.634 268.5 222.394 268.852C222.162 269.204 221.838 269.46 221.422 269.62C221.926 269.748 222.314 269.996 222.586 270.364C222.858 270.724 222.994 271.168 222.994 271.696C222.994 272.44 222.73 273.028 222.202 273.46C221.682 273.892 220.966 274.108 220.054 274.108Z" fill="#292C2F" fill-opacity="0.4"/>
<path d="M141.02 274V273.076L143.84 270.052C144.232 269.628 144.512 269.244 144.68 268.9C144.856 268.556 144.944 268.208 144.944 267.856C144.944 266.944 144.408 266.488 143.336 266.488C142.52 266.488 141.788 266.796 141.14 267.412L140.696 266.464C141.016 266.152 141.424 265.904 141.92 265.72C142.416 265.528 142.932 265.432 143.468 265.432C144.34 265.432 145.008 265.632 145.472 266.032C145.944 266.432 146.18 267.004 146.18 267.748C146.18 268.252 146.056 268.744 145.808 269.224C145.568 269.704 145.188 270.216 144.668 270.76L142.58 272.956H146.516V274H141.02ZM150.795 274.108C149.811 274.108 149.059 273.736 148.539 272.992C148.027 272.24 147.771 271.164 147.771 269.764C147.771 268.34 148.027 267.264 148.539 266.536C149.059 265.8 149.811 265.432 150.795 265.432C151.787 265.432 152.539 265.8 153.051 266.536C153.563 267.264 153.819 268.336 153.819 269.752C153.819 271.16 153.559 272.24 153.039 272.992C152.527 273.736 151.779 274.108 150.795 274.108ZM150.795 273.076C151.403 273.076 151.855 272.808 152.151 272.272C152.447 271.736 152.595 270.896 152.595 269.752C152.595 268.608 152.447 267.776 152.151 267.256C151.863 266.728 151.411 266.464 150.795 266.464C150.187 266.464 149.735 266.728 149.439 267.256C149.143 267.784 148.995 268.616 148.995 269.752C148.995 270.896 149.143 271.736 149.439 272.272C149.735 272.808 150.187 273.076 150.795 273.076ZM155.411 274V273.076L158.231 270.052C158.623 269.628 158.903 269.244 159.071 268.9C159.247 268.556 159.335 268.208 159.335 267.856C159.335 266.944 158.799 266.488 157.727 266.488C156.911 266.488 156.179 266.796 155.531 267.412L155.087 266.464C155.407 266.152 155.815 265.904 156.311 265.72C156.807 265.528 157.323 265.432 157.859 265.432C158.731 265.432 159.399 265.632 159.863 266.032C160.335 266.432 160.571 267.004 160.571 267.748C160.571 268.252 160.447 268.744 160.199 269.224C159.959 269.704 159.579 270.216 159.059 270.76L156.971 272.956H160.907V274H155.411ZM162.606 274V273.076L165.426 270.052C165.818 269.628 166.098 269.244 166.266 268.9C166.442 268.556 166.53 268.208 166.53 267.856C166.53 266.944 165.994 266.488 164.922 266.488C164.106 266.488 163.374 266.796 162.726 267.412L162.282 266.464C162.602 266.152 163.01 265.904 163.506 265.72C164.002 265.528 164.518 265.432 165.054 265.432C165.926 265.432 166.594 265.632 167.058 266.032C167.53 266.432 167.766 267.004 167.766 267.748C167.766 268.252 167.642 268.744 167.394 269.224C167.154 269.704 166.774 270.216 166.254 270.76L164.166 272.956H168.102V274H162.606Z" fill="#292C2F" fill-opacity="0.4"/>
<path d="M87.02 274V273.076L89.84 270.052C90.232 269.628 90.512 269.244 90.68 268.9C90.856 268.556 90.944 268.208 90.944 267.856C90.944 266.944 90.408 266.488 89.336 266.488C88.52 266.488 87.788 266.796 87.14 267.412L86.696 266.464C87.016 266.152 87.424 265.904 87.92 265.72C88.416 265.528 88.932 265.432 89.468 265.432C90.34 265.432 91.008 265.632 91.472 266.032C91.944 266.432 92.18 267.004 92.18 267.748C92.18 268.252 92.056 268.744 91.808 269.224C91.568 269.704 91.188 270.216 90.668 270.76L88.58 272.956H92.516V274H87.02ZM96.7953 274.108C95.8113 274.108 95.0593 273.736 94.5393 272.992C94.0273 272.24 93.7713 271.164 93.7713 269.764C93.7713 268.34 94.0273 267.264 94.5393 266.536C95.0593 265.8 95.8113 265.432 96.7953 265.432C97.7873 265.432 98.5393 265.8 99.0513 266.536C99.5633 267.264 99.8193 268.336 99.8193 269.752C99.8193 271.16 99.5593 272.24 99.0393 272.992C98.5273 273.736 97.7793 274.108 96.7953 274.108ZM96.7953 273.076C97.4033 273.076 97.8553 272.808 98.1513 272.272C98.4473 271.736 98.5953 270.896 98.5953 269.752C98.5953 268.608 98.4473 267.776 98.1513 267.256C97.8633 266.728 97.4113 266.464 96.7953 266.464C96.1873 266.464 95.7353 266.728 95.4393 267.256C95.1433 267.784 94.9953 268.616 94.9953 269.752C94.9953 270.896 95.1433 271.736 95.4393 272.272C95.7353 272.808 96.1873 273.076 96.7953 273.076ZM101.411 274V273.076L104.231 270.052C104.623 269.628 104.903 269.244 105.071 268.9C105.247 268.556 105.335 268.208 105.335 267.856C105.335 266.944 104.799 266.488 103.727 266.488C102.911 266.488 102.179 266.796 101.531 267.412L101.087 266.464C101.407 266.152 101.815 265.904 102.311 265.72C102.807 265.528 103.323 265.432 103.859 265.432C104.731 265.432 105.399 265.632 105.863 266.032C106.335 266.432 106.571 267.004 106.571 267.748C106.571 268.252 106.447 268.744 106.199 269.224C105.959 269.704 105.579 270.216 105.059 270.76L102.971 272.956H106.907V274H101.411ZM108.99 274V272.956H110.91V266.98L109.41 267.916L108.906 266.992L111.27 265.54H112.146V272.956H113.946V274H108.99Z" fill="#292C2F" fill-opacity="0.4"/>
<path d="M32.02 274V273.076L34.84 270.052C35.232 269.628 35.512 269.244 35.68 268.9C35.856 268.556 35.944 268.208 35.944 267.856C35.944 266.944 35.408 266.488 34.336 266.488C33.52 266.488 32.788 266.796 32.14 267.412L31.696 266.464C32.016 266.152 32.424 265.904 32.92 265.72C33.416 265.528 33.932 265.432 34.468 265.432C35.34 265.432 36.008 265.632 36.472 266.032C36.944 266.432 37.18 267.004 37.18 267.748C37.18 268.252 37.056 268.744 36.808 269.224C36.568 269.704 36.188 270.216 35.668 270.76L33.58 272.956H37.516V274H32.02ZM41.7953 274.108C40.8113 274.108 40.0593 273.736 39.5393 272.992C39.0273 272.24 38.7713 271.164 38.7713 269.764C38.7713 268.34 39.0273 267.264 39.5393 266.536C40.0593 265.8 40.8113 265.432 41.7953 265.432C42.7873 265.432 43.5393 265.8 44.0513 266.536C44.5633 267.264 44.8193 268.336 44.8193 269.752C44.8193 271.16 44.5593 272.24 44.0393 272.992C43.5273 273.736 42.7793 274.108 41.7953 274.108ZM41.7953 273.076C42.4033 273.076 42.8553 272.808 43.1513 272.272C43.4473 271.736 43.5953 270.896 43.5953 269.752C43.5953 268.608 43.4473 267.776 43.1513 267.256C42.8633 266.728 42.4113 266.464 41.7953 266.464C41.1873 266.464 40.7353 266.728 40.4393 267.256C40.1433 267.784 39.9953 268.616 39.9953 269.752C39.9953 270.896 40.1433 271.736 40.4393 272.272C40.7353 272.808 41.1873 273.076 41.7953 273.076ZM46.4106 274V273.076L49.2306 270.052C49.6226 269.628 49.9026 269.244 50.0706 268.9C50.2466 268.556 50.3346 268.208 50.3346 267.856C50.3346 266.944 49.7986 266.488 48.7266 266.488C47.9106 266.488 47.1786 266.796 46.5306 267.412L46.0866 266.464C46.4066 266.152 46.8146 265.904 47.3106 265.72C47.8066 265.528 48.3226 265.432 48.8586 265.432C49.7306 265.432 50.3986 265.632 50.8626 266.032C51.3346 266.432 51.5706 267.004 51.5706 267.748C51.5706 268.252 51.4466 268.744 51.1986 269.224C50.9586 269.704 50.5786 270.216 50.0586 270.76L47.9706 272.956H51.9066V274H46.4106ZM56.1859 274.108C55.2019 274.108 54.4499 273.736 53.9299 272.992C53.4179 272.24 53.1619 271.164 53.1619 269.764C53.1619 268.34 53.4179 267.264 53.9299 266.536C54.4499 265.8 55.2019 265.432 56.1859 265.432C57.1779 265.432 57.9299 265.8 58.4419 266.536C58.9539 267.264 59.2099 268.336 59.2099 269.752C59.2099 271.16 58.9499 272.24 58.4299 272.992C57.9179 273.736 57.1699 274.108 56.1859 274.108ZM56.1859 273.076C56.7939 273.076 57.2459 272.808 57.5419 272.272C57.8379 271.736 57.9859 270.896 57.9859 269.752C57.9859 268.608 57.8379 267.776 57.5419 267.256C57.2539 266.728 56.8019 266.464 56.1859 266.464C55.5779 266.464 55.1259 266.728 54.8299 267.256C54.5339 267.784 54.3859 268.616 54.3859 269.752C54.3859 270.896 54.5339 271.736 54.8299 272.272C55.1259 272.808 55.5779 273.076 56.1859 273.076Z" fill="#292C2F" fill-opacity="0.4"/>
<path d="M26.4047 254.108C25.4207 254.108 24.6687 253.736 24.1487 252.992C23.6367 252.24 23.3807 251.164 23.3807 249.764C23.3807 248.34 23.6367 247.264 24.1487 246.536C24.6687 245.8 25.4207 245.432 26.4047 245.432C27.3967 245.432 28.1487 245.8 28.6607 246.536C29.1727 247.264 29.4287 248.336 29.4287 249.752C29.4287 251.16 29.1687 252.24 28.6487 252.992C28.1367 253.736 27.3887 254.108 26.4047 254.108ZM26.4047 253.076C27.0127 253.076 27.4647 252.808 27.7607 252.272C28.0567 251.736 28.2047 250.896 28.2047 249.752C28.2047 248.608 28.0567 247.776 27.7607 247.256C27.4727 246.728 27.0207 246.464 26.4047 246.464C25.7967 246.464 25.3447 246.728 25.0487 247.256C24.7527 247.784 24.6047 248.616 24.6047 249.752C24.6047 250.896 24.7527 251.736 25.0487 252.272C25.3447 252.808 25.7967 253.076 26.4047 253.076Z" fill="#292C2F" fill-opacity="0.4"/>
<path d="M16.6294 208V207.076L19.4494 204.052C19.8414 203.628 20.1214 203.244 20.2894 202.9C20.4654 202.556 20.5534 202.208 20.5534 201.856C20.5534 200.944 20.0174 200.488 18.9454 200.488C18.1294 200.488 17.3974 200.796 16.7494 201.412L16.3054 200.464C16.6254 200.152 17.0334 199.904 17.5294 199.72C18.0254 199.528 18.5414 199.432 19.0774 199.432C19.9494 199.432 20.6174 199.632 21.0814 200.032C21.5534 200.432 21.7894 201.004 21.7894 201.748C21.7894 202.252 21.6654 202.744 21.4174 203.224C21.1774 203.704 20.7974 204.216 20.2774 204.76L18.1894 206.956H22.1254V208H16.6294ZM26.5367 208.108C25.9927 208.108 25.4647 208.024 24.9527 207.856C24.4487 207.68 24.0287 207.436 23.6927 207.124L24.1127 206.164C24.8487 206.756 25.6487 207.052 26.5127 207.052C27.0647 207.052 27.4967 206.904 27.8087 206.608C28.1207 206.304 28.2767 205.908 28.2767 205.42C28.2767 204.916 28.1287 204.504 27.8327 204.184C27.5367 203.864 27.1247 203.704 26.5967 203.704C25.8527 203.704 25.2567 204.012 24.8087 204.628H23.9447V199.54H28.9847V200.584H25.1567V203.26C25.6047 202.868 26.1727 202.672 26.8607 202.672C27.3967 202.672 27.8607 202.784 28.2527 203.008C28.6447 203.232 28.9487 203.548 29.1647 203.956C29.3807 204.356 29.4887 204.824 29.4887 205.36C29.4887 205.904 29.3687 206.384 29.1287 206.8C28.8887 207.208 28.5487 207.528 28.1087 207.76C27.6687 207.992 27.1447 208.108 26.5367 208.108Z" fill="#292C2F" fill-opacity="0.4"/>
<path d="M19.3414 161.108C18.7974 161.108 18.2694 161.024 17.7574 160.856C17.2534 160.68 16.8334 160.436 16.4974 160.124L16.9174 159.164C17.6534 159.756 18.4534 160.052 19.3174 160.052C19.8694 160.052 20.3014 159.904 20.6134 159.608C20.9254 159.304 21.0814 158.908 21.0814 158.42C21.0814 157.916 20.9334 157.504 20.6374 157.184C20.3414 156.864 19.9294 156.704 19.4014 156.704C18.6574 156.704 18.0614 157.012 17.6134 157.628H16.7494V152.54H21.7894V153.584H17.9614V156.26C18.4094 155.868 18.9774 155.672 19.6654 155.672C20.2014 155.672 20.6654 155.784 21.0574 156.008C21.4494 156.232 21.7534 156.548 21.9694 156.956C22.1854 157.356 22.2934 157.824 22.2934 158.36C22.2934 158.904 22.1734 159.384 21.9334 159.8C21.6934 160.208 21.3534 160.528 20.9134 160.76C20.4734 160.992 19.9494 161.108 19.3414 161.108ZM26.4047 161.108C25.4207 161.108 24.6687 160.736 24.1487 159.992C23.6367 159.24 23.3807 158.164 23.3807 156.764C23.3807 155.34 23.6367 154.264 24.1487 153.536C24.6687 152.8 25.4207 152.432 26.4047 152.432C27.3967 152.432 28.1487 152.8 28.6607 153.536C29.1727 154.264 29.4287 155.336 29.4287 156.752C29.4287 158.16 29.1687 159.24 28.6487 159.992C28.1367 160.736 27.3887 161.108 26.4047 161.108ZM26.4047 160.076C27.0127 160.076 27.4647 159.808 27.7607 159.272C28.0567 158.736 28.2047 157.896 28.2047 156.752C28.2047 155.608 28.0567 154.776 27.7607 154.256C27.4727 153.728 27.0207 153.464 26.4047 153.464C25.7967 153.464 25.3447 153.728 25.0487 154.256C24.7527 154.784 24.6047 155.616 24.6047 156.752C24.6047 157.896 24.7527 158.736 25.0487 159.272C25.3447 159.808 25.7967 160.076 26.4047 160.076Z" fill="#292C2F" fill-opacity="0.4"/>
<path d="M16.8094 114L20.6854 106.584H16.3534V105.54H22.0774V106.464L18.1774 114H16.8094ZM26.5367 114.108C25.9927 114.108 25.4647 114.024 24.9527 113.856C24.4487 113.68 24.0287 113.436 23.6927 113.124L24.1127 112.164C24.8487 112.756 25.6487 113.052 26.5127 113.052C27.0647 113.052 27.4967 112.904 27.8087 112.608C28.1207 112.304 28.2767 111.908 28.2767 111.42C28.2767 110.916 28.1287 110.504 27.8327 110.184C27.5367 109.864 27.1247 109.704 26.5967 109.704C25.8527 109.704 25.2567 110.012 24.8087 110.628H23.9447V105.54H28.9847V106.584H25.1567V109.26C25.6047 108.868 26.1727 108.672 26.8607 108.672C27.3967 108.672 27.8607 108.784 28.2527 109.008C28.6447 109.232 28.9487 109.548 29.1647 109.956C29.3807 110.356 29.4887 110.824 29.4887 111.36C29.4887 111.904 29.3687 112.384 29.1287 112.8C28.8887 113.208 28.5487 113.528 28.1087 113.76C27.6687 113.992 27.1447 114.108 26.5367 114.108Z" fill="#292C2F" fill-opacity="0.4"/>
<path d="M9.81806 67V65.956H11.7381V59.98L10.2381 60.916L9.73406 59.992L12.0981 58.54H12.9741V65.956H14.7741V67H9.81806ZM19.2094 67.108C18.2254 67.108 17.4734 66.736 16.9534 65.992C16.4414 65.24 16.1854 64.164 16.1854 62.764C16.1854 61.34 16.4414 60.264 16.9534 59.536C17.4734 58.8 18.2254 58.432 19.2094 58.432C20.2014 58.432 20.9534 58.8 21.4654 59.536C21.9774 60.264 22.2334 61.336 22.2334 62.752C22.2334 64.16 21.9734 65.24 21.4534 65.992C20.9414 66.736 20.1934 67.108 19.2094 67.108ZM19.2094 66.076C19.8174 66.076 20.2694 65.808 20.5654 65.272C20.8614 64.736 21.0094 63.896 21.0094 62.752C21.0094 61.608 20.8614 60.776 20.5654 60.256C20.2774 59.728 19.8254 59.464 19.2094 59.464C18.6014 59.464 18.1494 59.728 17.8534 60.256C17.5574 60.784 17.4094 61.616 17.4094 62.752C17.4094 63.896 17.5574 64.736 17.8534 65.272C18.1494 65.808 18.6014 66.076 19.2094 66.076ZM26.4047 67.108C25.4207 67.108 24.6687 66.736 24.1487 65.992C23.6367 65.24 23.3807 64.164 23.3807 62.764C23.3807 61.34 23.6367 60.264 24.1487 59.536C24.6687 58.8 25.4207 58.432 26.4047 58.432C27.3967 58.432 28.1487 58.8 28.6607 59.536C29.1727 60.264 29.4287 61.336 29.4287 62.752C29.4287 64.16 29.1687 65.24 28.6487 65.992C28.1367 66.736 27.3887 67.108 26.4047 67.108ZM26.4047 66.076C27.0127 66.076 27.4647 65.808 27.7607 65.272C28.0567 64.736 28.2047 63.896 28.2047 62.752C28.2047 61.608 28.0567 60.776 27.7607 60.256C27.4727 59.728 27.0207 59.464 26.4047 59.464C25.7967 59.464 25.3447 59.728 25.0487 60.256C24.7527 60.784 24.6047 61.616 24.6047 62.752C24.6047 63.896 24.7527 64.736 25.0487 65.272C25.3447 65.808 25.7967 66.076 26.4047 66.076Z" fill="#292C2F" fill-opacity="0.4"/>
<path d="M19.225 34L24.025 23.5H25.12L29.92 34H28.75L24.34 24.145H24.79L20.38 34H19.225ZM21.115 31.195L21.445 30.295H27.55L27.88 31.195H21.115ZM31.6771 34V26.125H32.7421V29.605H37.7071V26.125H38.7721V34H37.7071V30.52H32.7421V34H31.6771ZM46.6892 34V32.26L46.6442 31.975V29.065C46.6442 28.395 46.4542 27.88 46.0742 27.52C45.7042 27.16 45.1492 26.98 44.4092 26.98C43.8992 26.98 43.4142 27.065 42.9542 27.235C42.4942 27.405 42.1042 27.63 41.7842 27.91L41.3042 27.115C41.7042 26.775 42.1842 26.515 42.7442 26.335C43.3042 26.145 43.8942 26.05 44.5142 26.05C45.5342 26.05 46.3192 26.305 46.8692 26.815C47.4292 27.315 47.7092 28.08 47.7092 29.11V34H46.6892ZM43.9742 34.075C43.3842 34.075 42.8692 33.98 42.4292 33.79C41.9992 33.59 41.6692 33.32 41.4392 32.98C41.2092 32.63 41.0942 32.23 41.0942 31.78C41.0942 31.37 41.1892 31 41.3792 30.67C41.5792 30.33 41.8992 30.06 42.3392 29.86C42.7892 29.65 43.3892 29.545 44.1392 29.545H46.8542V30.34H44.1692C43.4092 30.34 42.8792 30.475 42.5792 30.745C42.2892 31.015 42.1442 31.35 42.1442 31.75C42.1442 32.2 42.3192 32.56 42.6692 32.83C43.0192 33.1 43.5092 33.235 44.1392 33.235C44.7392 33.235 45.2542 33.1 45.6842 32.83C46.1242 32.55 46.4442 32.15 46.6442 31.63L46.8842 32.365C46.6842 32.885 46.3342 33.3 45.8342 33.61C45.3442 33.92 44.7242 34.075 43.9742 34.075ZM49.1043 33.985L49.1793 33.07C49.2493 33.08 49.3143 33.095 49.3743 33.115C49.4443 33.125 49.5043 33.13 49.5543 33.13C49.8743 33.13 50.1293 33.01 50.3193 32.77C50.5193 32.53 50.6693 32.21 50.7693 31.81C50.8693 31.41 50.9393 30.96 50.9793 30.46C51.0193 29.95 51.0543 29.44 51.0843 28.93L51.2193 26.125H56.9943V34H55.9293V26.74L56.1993 27.055H51.9093L52.1643 26.725L52.0443 29.005C52.0143 29.685 51.9593 30.335 51.8793 30.955C51.8093 31.575 51.6943 32.12 51.5343 32.59C51.3843 33.06 51.1743 33.43 50.9043 33.7C50.6343 33.96 50.2893 34.09 49.8693 34.09C49.7493 34.09 49.6243 34.08 49.4943 34.06C49.3743 34.04 49.2443 34.015 49.1043 33.985ZM60.0218 34V26.125H61.0868V32.38L66.3518 26.125H67.2968V34H66.2318V27.73L60.9818 34H60.0218ZM71.849 34V26.77L72.119 27.055H68.864V26.125H75.899V27.055H72.644L72.914 26.77V34H71.849ZM77.4388 34V26.125H78.5038V32.38L83.7688 26.125H84.7138V34H83.6488V27.73L78.3988 34H77.4388ZM93.541 34L90.301 30.1L91.186 29.575L94.801 34H93.541ZM87.766 34V26.125H88.831V34H87.766ZM88.501 30.49V29.575H91.036V30.49H88.501ZM91.276 30.175L90.286 30.025L93.421 26.125H94.576L91.276 30.175ZM101.225 34V32.26L101.18 31.975V29.065C101.18 28.395 100.99 27.88 100.61 27.52C100.24 27.16 99.6853 26.98 98.9453 26.98C98.4353 26.98 97.9503 27.065 97.4903 27.235C97.0303 27.405 96.6403 27.63 96.3203 27.91L95.8403 27.115C96.2403 26.775 96.7203 26.515 97.2803 26.335C97.8403 26.145 98.4303 26.05 99.0503 26.05C100.07 26.05 100.855 26.305 101.405 26.815C101.965 27.315 102.245 28.08 102.245 29.11V34H101.225ZM98.5103 34.075C97.9203 34.075 97.4053 33.98 96.9653 33.79C96.5353 33.59 96.2053 33.32 95.9753 32.98C95.7453 32.63 95.6303 32.23 95.6303 31.78C95.6303 31.37 95.7253 31 95.9153 30.67C96.1153 30.33 96.4353 30.06 96.8753 29.86C97.3253 29.65 97.9253 29.545 98.6753 29.545H101.39V30.34H98.7053C97.9453 30.34 97.4153 30.475 97.1153 30.745C96.8253 31.015 96.6803 31.35 96.6803 31.75C96.6803 32.2 96.8553 32.56 97.2053 32.83C97.5553 33.1 98.0453 33.235 98.6753 33.235C99.2753 33.235 99.7903 33.1 100.22 32.83C100.66 32.55 100.98 32.15 101.18 31.63L101.42 32.365C101.22 32.885 100.87 33.3 100.37 33.61C99.8803 33.92 99.2603 34.075 98.5103 34.075ZM112.306 34.075C111.526 34.075 110.826 33.905 110.206 33.565C109.596 33.215 109.116 32.74 108.766 32.14C108.416 31.53 108.241 30.835 108.241 30.055C108.241 29.265 108.416 28.57 108.766 27.97C109.116 27.37 109.596 26.9 110.206 26.56C110.826 26.22 111.526 26.05 112.306 26.05C112.976 26.05 113.581 26.18 114.121 26.44C114.661 26.7 115.086 27.09 115.396 27.61L114.601 28.15C114.331 27.75 113.996 27.455 113.596 27.265C113.196 27.075 112.761 26.98 112.291 26.98C111.731 26.98 111.226 27.11 110.776 27.37C110.326 27.62 109.971 27.975 109.711 28.435C109.451 28.895 109.321 29.435 109.321 30.055C109.321 30.675 109.451 31.215 109.711 31.675C109.971 32.135 110.326 32.495 110.776 32.755C111.226 33.005 111.731 33.13 112.291 33.13C112.761 33.13 113.196 33.035 113.596 32.845C113.996 32.655 114.331 32.365 114.601 31.975L115.396 32.515C115.086 33.025 114.661 33.415 114.121 33.685C113.581 33.945 112.976 34.075 112.306 34.075ZM117.476 36.985C117.106 36.985 116.751 36.925 116.411 36.805C116.081 36.685 115.796 36.505 115.556 36.265L116.051 35.47C116.251 35.66 116.466 35.805 116.696 35.905C116.936 36.015 117.201 36.07 117.491 36.07C117.841 36.07 118.141 35.97 118.391 35.77C118.651 35.58 118.896 35.24 119.126 34.75L119.636 33.595L119.756 33.43L122.996 26.125H124.046L120.101 34.945C119.881 35.455 119.636 35.86 119.366 36.16C119.106 36.46 118.821 36.67 118.511 36.79C118.201 36.92 117.856 36.985 117.476 36.985ZM119.576 34.225L115.946 26.125H117.056L120.266 33.355L119.576 34.225ZM129.128 34.09C128.488 34.09 127.918 33.985 127.418 33.775C126.928 33.565 126.508 33.245 126.158 32.815C125.808 32.385 125.543 31.855 125.363 31.225C125.183 30.585 125.093 29.845 125.093 29.005C125.093 28.255 125.163 27.6 125.303 27.04C125.443 26.47 125.638 25.98 125.888 25.57C126.138 25.16 126.428 24.815 126.758 24.535C127.098 24.245 127.463 24.015 127.853 23.845C128.253 23.665 128.663 23.53 129.083 23.44L132.623 22.615L132.803 23.605L129.473 24.355C129.263 24.405 129.008 24.475 128.708 24.565C128.418 24.655 128.118 24.79 127.808 24.97C127.508 25.15 127.228 25.4 126.968 25.72C126.708 26.04 126.498 26.455 126.338 26.965C126.188 27.465 126.113 28.09 126.113 28.84C126.113 29 126.118 29.13 126.128 29.23C126.138 29.32 126.148 29.42 126.158 29.53C126.178 29.63 126.193 29.78 126.203 29.98L125.738 29.59C125.848 28.98 126.073 28.45 126.413 28C126.753 27.54 127.178 27.185 127.688 26.935C128.208 26.675 128.783 26.545 129.413 26.545C130.143 26.545 130.793 26.705 131.363 27.025C131.933 27.335 132.378 27.77 132.698 28.33C133.028 28.89 133.193 29.54 133.193 30.28C133.193 31.01 133.023 31.665 132.683 32.245C132.353 32.825 131.883 33.28 131.273 33.61C130.663 33.93 129.948 34.09 129.128 34.09ZM129.248 33.205C129.808 33.205 130.303 33.08 130.733 32.83C131.163 32.57 131.498 32.22 131.738 31.78C131.988 31.34 132.113 30.845 132.113 30.295C132.113 29.755 131.988 29.275 131.738 28.855C131.498 28.435 131.163 28.105 130.733 27.865C130.303 27.615 129.803 27.49 129.233 27.49C128.673 27.49 128.178 27.61 127.748 27.85C127.318 28.08 126.978 28.405 126.728 28.825C126.488 29.245 126.368 29.73 126.368 30.28C126.368 30.83 126.488 31.325 126.728 31.765C126.978 32.205 127.318 32.555 127.748 32.815C128.188 33.075 128.688 33.205 129.248 33.205ZM138.776 34.075C137.996 34.075 137.296 33.905 136.676 33.565C136.066 33.215 135.586 32.74 135.236 32.14C134.886 31.53 134.711 30.835 134.711 30.055C134.711 29.265 134.886 28.57 135.236 27.97C135.586 27.37 136.066 26.9 136.676 26.56C137.296 26.22 137.996 26.05 138.776 26.05C139.446 26.05 140.051 26.18 140.591 26.44C141.131 26.7 141.556 27.09 141.866 27.61L141.071 28.15C140.801 27.75 140.466 27.455 140.066 27.265C139.666 27.075 139.231 26.98 138.761 26.98C138.201 26.98 137.696 27.11 137.246 27.37C136.796 27.62 136.441 27.975 136.181 28.435C135.921 28.895 135.791 29.435 135.791 30.055C135.791 30.675 135.921 31.215 136.181 31.675C136.441 32.135 136.796 32.495 137.246 32.755C137.696 33.005 138.201 33.13 138.761 33.13C139.231 33.13 139.666 33.035 140.066 32.845C140.466 32.655 140.801 32.365 141.071 31.975L141.866 32.515C141.556 33.025 141.131 33.415 140.591 33.685C140.051 33.945 139.446 34.075 138.776 34.075ZM143.928 34V26.125H144.993V32.38L150.258 26.125H151.203V34H150.138V27.73L144.888 34H143.928ZM159.655 33.49V27.055H155.86L155.77 28.81C155.75 29.34 155.715 29.86 155.665 30.37C155.625 30.88 155.55 31.35 155.44 31.78C155.34 32.2 155.195 32.545 155.005 32.815C154.815 33.075 154.57 33.225 154.27 33.265L153.205 33.07C153.515 33.08 153.77 32.97 153.97 32.74C154.17 32.5 154.325 32.175 154.435 31.765C154.545 31.355 154.625 30.89 154.675 30.37C154.725 29.84 154.765 29.3 154.795 28.75L154.9 26.125H160.72V33.49H159.655ZM152.875 35.905V33.07H161.95V35.905H160.945V34H153.88V35.905H152.875ZM164.026 34V26.125H165.091V32.38L170.356 26.125H171.301V34H170.236V27.73L164.986 34H164.026ZM174.353 34V26.125H175.418V32.38L180.683 26.125H181.628V34H180.563V27.73L175.313 34H174.353ZM177.923 24.985C177.263 24.985 176.728 24.82 176.318 24.49C175.918 24.15 175.708 23.665 175.688 23.035H176.453C176.463 23.435 176.603 23.75 176.873 23.98C177.143 24.21 177.493 24.325 177.923 24.325C178.353 24.325 178.703 24.21 178.973 23.98C179.253 23.75 179.398 23.435 179.408 23.035H180.173C180.163 23.665 179.953 24.15 179.543 24.49C179.133 24.82 178.593 24.985 177.923 24.985Z" fill="#202224"/>
</svg>
