<svg width="122" height="127" viewBox="0 0 122 127" fill="none" xmlns="http://www.w3.org/2000/svg">
<path d="M20.5085 32.9391C6.12535 35.8338 -6.63467 44.0522 -15.2191 55.9502C-23.8035 67.8483 -27.5793 82.5487 -25.7913 97.1109L-9.63154 95.1268C-10.9196 84.6368 -8.19961 74.0472 -2.01577 65.4764C4.16806 56.9056 13.3598 50.9854 23.7208 48.9002L20.5085 32.9391Z" fill="#FFD66B"/>
<path d="M89.8512 96.5379C90.8813 87.4008 89.7326 78.1495 86.4991 69.5418C83.2657 60.934 78.0394 53.2145 71.2482 47.0154C64.457 40.8163 56.2941 36.3138 47.4279 33.8767C38.5617 31.4396 29.2444 31.1372 20.2388 32.9942L23.5268 48.9398C30.0141 47.6021 36.7259 47.82 43.1127 49.5756C49.4995 51.3312 55.3797 54.5745 60.2718 59.0401C65.1638 63.5057 68.9286 69.0665 71.2579 75.2671C73.5872 81.4678 74.4147 88.1319 73.6726 94.714L89.8512 96.5379Z" fill="#35CF72"/>
<path d="M64.6736 138.201C71.6856 133.445 77.5753 127.217 81.9314 119.95C86.2876 112.684 89.0053 104.554 89.8948 96.128L73.7036 94.4187C73.0629 100.488 71.1052 106.345 67.9672 111.579C64.8292 116.814 60.5866 121.301 55.5354 124.726L64.6736 138.201Z" fill="#5B93FF"/>
<path d="M-25.796 97.0692C-24.6213 106.694 -21.0612 115.874 -15.4389 123.774L-2.17401 114.334C-6.22408 108.643 -8.78861 102.03 -9.63481 95.0968L-25.796 97.0692Z" fill="#D6D6D6"/>
<path d="M39.855 147.704C48.7375 146.493 57.2205 143.248 64.643 138.222L55.5134 124.741C50.1665 128.362 44.0557 130.7 37.6572 131.571L39.855 147.704Z" fill="#FF6565"/>
</svg>
